<svg xmlns="http://www.w3.org/2000/svg" id="1st" data-name="1st" viewBox="0 0 42.23 49.23"><defs><style>.cls-1{fill:#79fc79}.cls-2{fill:none;stroke:#000;stroke-miterlimit:10}</style></defs><title>1st</title><g id="_1st" data-name="1st"><path d="M51.12,26.75l-2.48,1.53a2.59,2.59,0,0,0-3-.61L40.88,30c.74-.72,1.49-1.42,2.24-2.12l.62-.43a2.42,2.42,0,0,0,.73-.77c1.9-1.59,3.77-3.21,5.63-4.86,2.27-2-1-5.12-3.29-3.28-2.1,1.7-4.14,3.47-6.14,5.29l-.74.62-.21.15,3.49-3.36a2.07,2.07,0,0,0,.39-2.66L44,18c1.49-2.18-1.87-4.74-3.65-2.82L20.45,36.63a2.24,2.24,0,0,0-.64,1.81,23.62,23.62,0,0,0-3.93,4c-1.55,2,1.33,4.07,3.18,3.18l2.44-1.18A7.89,7.89,0,0,0,21,46.62a2.34,2.34,0,0,0,3.49,2l2.79-1.72c-.12.21-.23.42-.34.63a2.3,2.3,0,0,0,1.57,3.39c-2.24,1.83-4.41,3.75-6.48,5.8-1.85,1.82.55,5.09,2.81,3.65l3.06-2-1.33,1.3c-1.86,1.79.58,5.15,2.81,3.65l11.15-7.53c.81-.38,1.59-.83,2.35-1.27a19.55,19.55,0,0,0,4.64-3.49,2.48,2.48,0,0,0-1.24-4l1.55-1.49a2.23,2.23,0,0,0,.18-3,2.34,2.34,0,0,0-1-4,27.74,27.74,0,0,0,3-4.84l3.87-3.31C56,28.67,53.35,25.38,51.12,26.75Z" class="cls-1" transform="translate(-15.44 -14.5)"/><path d="M37.17,54.26H34.85a2.39,2.39,0,0,1-2.38-2.38v-19a1.32,1.32,0,0,0-1.31-1.32H29.52a2.39,2.39,0,0,1-2.38-2.38V27.54a2.39,2.39,0,0,1,2.38-2.38h7.65a2.39,2.39,0,0,1,2.38,2.38V51.88A2.39,2.39,0,0,1,37.17,54.26Zm-7.65-28a1.33,1.33,0,0,0-1.32,1.32v1.64a1.32,1.32,0,0,0,1.32,1.32h1.64a2.38,2.38,0,0,1,2.38,2.38v19a1.32,1.32,0,0,0,1.31,1.32h2.32a1.33,1.33,0,0,0,1.32-1.32V27.54a1.33,1.33,0,0,0-1.32-1.32Z" transform="translate(-15.44 -14.5)"/><path d="M49.44,37.47v2.26H49.1a2,2,0,0,0-2,2V44a4.09,4.09,0,0,1-1.26,3,4.16,4.16,0,0,1-3,1.25h-.33V46h.33a2.07,2.07,0,0,0,2-2V41.75a4.3,4.3,0,0,1,4.28-4.28Z" class="cls-2" transform="translate(-16.44 -14.5)"/><path d="M50.33,38.94h1.12V36.12h2.26v2.82h2.36v2.25H53.71v1.69a2,2,0,0,0,2,2h.34v2.26h-.34a4.3,4.3,0,0,1-4.28-4.28V41.19H50.33Z" class="cls-2" transform="translate(-15.44 -14.5)"/><path d="M57.67,23a1.15,1.15,0,1,1-1.15-1.15A1.15,1.15,0,0,1,57.67,23Z" class="cls-1" transform="translate(-15.44 -14.5)"/><circle cx="5.1" cy="37.15" r="1.28" class="cls-1"/><path d="M18.72,31.7a.62.62,0,1,1-1.24,0,.62.62,0,0,1,1.24,0Z" class="cls-1" transform="translate(-15.44 -14.5)"/><path d="M53.6,55.42a1.24,1.24,0,1,1-2.48,0,1.24,1.24,0,0,1,2.48,0Z" class="cls-1" transform="translate(-15.44 -14.5)"/><path d="M52.71,51.17a.54.54,0,1,1,.53.53A.53.53,0,0,1,52.71,51.17Z" class="cls-1" transform="translate(-15.44 -14.5)"/><path d="M20.11,42.94a1.07,1.07,0,1,1-1.06-1.06A1.07,1.07,0,0,1,20.11,42.94Z" transform="translate(-15.44 -14.5)"/><circle cx="24.66" cy="4.93" r="1.37"/><path d="M34.12,60a1.55,1.55,0,1,1-1.54-1.55A1.55,1.55,0,0,1,34.12,60Z" transform="translate(-15.44 -14.5)"/><circle cx="39.17" cy="14.42" r=".48"/></g></svg>