<svg xmlns="http://www.w3.org/2000/svg" viewBox="0 0 48.38 49.23" xmlns:v="https://vecta.io/nano"><path d="M35.69 12.24l-2.48 1.53a2.59 2.59 0 0 0-3-.61l-4.77 2.3 2.23-2.12.63-.43a2.35 2.35 0 0 0 .72-.76q2.85-2.4 5.63-4.86c2.28-2-1-5.13-3.28-3.29l-6.14 5.29-.74.62-.22.15 3.5-3.36a2.08 2.08 0 0 0 .39-2.66l.37-.55c1.49-2.18-1.86-4.74-3.65-2.82L5 22.13a2.25 2.25 0 0 0-.64 1.8 24.39 24.39 0 0 0-3.93 4c-1.54 2 1.34 4.07 3.18 3.18l2.45-1.18a7.55 7.55 0 0 0-.49 2.18 2.34 2.34 0 0 0 3.5 2l2.78-1.72-.34.63a2.3 2.3 0 0 0 1.57 3.39l-6.48 5.8c-1.85 1.82.56 5.09 2.82 3.65l3-2-1.27 1.33c-1.85 1.8.59 5.15 2.82 3.65l11.15-7.53c.81-.37 1.59-.83 2.35-1.26a20.07 20.07 0 0 0 4.64-3.5 2.48 2.48 0 0 0-1.24-4l1.55-1.49a2.24 2.24 0 0 0 .17-3 2.34 2.34 0 0 0-1-4 27.11 27.11 0 0 0 3-4.84l3.87-3.31c2.06-1.72-.55-5.04-2.77-3.67z" fill="#79fc79"/><path d="M27.19 39.75H11.12a2.38 2.38 0 0 1-2.38-2.38v-1a5.75 5.75 0 0 1 1.44-3.54l5.64-5.77 2.55-2.67a34.34 34.34 0 0 0 2.24-2.62h0a4.58 4.58 0 0 0 1-2.6 2.69 2.69 0 0 0-.77-2 2.64 2.64 0 0 0-2-.78c-1.24 0-2.88 1.58-3.4 2.18a2.83 2.83 0 0 1-3.47.57l-1.83-1.08a2.17 2.17 0 0 1-1-1.45 2.2 2.2 0 0 1 .43-1.74 17.34 17.34 0 0 1 3.31-3.26 11.12 11.12 0 0 1 6.27-1.66 10.19 10.19 0 0 1 6.72 2.43 8.32 8.32 0 0 1 2.94 6.69 9 9 0 0 1-1.17 4.4 30.73 30.73 0 0 1-2.91 3.79l-2.52 2.73-2.5 2.59a.8.8 0 0 0-.25.39h.44 7.37a2.39 2.39 0 0 1 2.38 2.38v1.92a2.39 2.39 0 0 1-2.46 2.48zm-8.37-24.36a3.71 3.71 0 0 1 2.75 1.1 3.76 3.76 0 0 1 1.07 2.72 5.6 5.6 0 0 1-1.16 3.21h0a33.84 33.84 0 0 1-2.33 2.74l-2.56 2.68-5.64 5.77a4.71 4.71 0 0 0-1.14 2.8v1a1.32 1.32 0 0 0 1.32 1.32H27.2a1.32 1.32 0 0 0 1.32-1.32v-1.92a1.33 1.33 0 0 0-1.32-1.32h-7.38c-1 0-1.31-.44-1.42-.71s-.2-.82.47-1.52l2.49-2.59 2.5-2.69a30.9 30.9 0 0 0 2.77-3.6 7.93 7.93 0 0 0 1-3.89 7.19 7.19 0 0 0-2.56-5.87 9.16 9.16 0 0 0-6-2.19 10.09 10.09 0 0 0-5.68 1.48 16.75 16.75 0 0 0-3.06 3 1.1 1.1 0 0 0-.22.88 1.09 1.09 0 0 0 .54.74l1.83 1.09a1.75 1.75 0 0 0 2.12-.35c.22-.27 2.22-2.56 4.22-2.56z"/><path d="M34.67 25.4h2.09v9.63l-5.21-6.27v3.91h-2.08v-9.63l5.2 6.28zm11.71-2.61v7.6l1.46 1.45-1.46 1.46-1.31-1.32a3.88 3.88 0 0 1-2.65 1 4 4 0 1 1 1.87-7.42v-2.77zm-5.83 6.24a1.91 1.91 0 1 0 .56-1.31 1.81 1.81 0 0 0-.56 1.31z" fill="none" stroke="#000" stroke-miterlimit="10"/><g fill="#79fc79"><path d="M42.23 8.51a1.15 1.15 0 1 1-2.3 0 1.15 1.15 0 1 1 2.3 0z"/><circle cx="5.1" cy="37.15" r="1.28"/><path d="M3.29 17.19a.62.62 0 1 1-.182-.438.62.62 0 0 1 .182.438zm34.87 23.72a1.24 1.24 0 1 1-.363-.877 1.24 1.24 0 0 1 .363.877zm-.88-4.25a.53.53 0 1 1 .155.375.53.53 0 0 1-.155-.375z"/></g><path d="M4.67 28.43a1.06 1.06 0 1 1-2.12 0 1.06 1.06 0 0 1 1.06-1.06 1.05 1.05 0 0 1 1.06 1.06z"/><circle cx="24.66" cy="4.93" r="1.37"/><path d="M18.69 45.47a1.55 1.55 0 1 1-3.1 0 1.55 1.55 0 0 1 2.646-1.096 1.55 1.55 0 0 1 .454 1.096z"/><circle cx="39.17" cy="14.42" r=".48"/></svg>