<svg id="3rd" data-name="3rd" xmlns="http://www.w3.org/2000/svg" viewBox="0 0 47.54 49.23">
    <defs>
        <style>
            .cls-1 {
                fill: #79fc79;
            }

            .cls-2 {
                fill: none;
                stroke: #000;
                stroke-miterlimit: 10;
            }
        </style>
    </defs>
    <title>3rd</title>
    <g id="_3rd" data-name="3rd">
        <path class="cls-1"
            d="M306.58,230.29l-2.49,1.53a2.59,2.59,0,0,0-3-.61l-4.78,2.3,2.24-2.12.63-.43a2.46,2.46,0,0,0,.72-.76q2.85-2.4,5.63-4.86c2.27-2-1-5.13-3.28-3.29-2.11,1.7-4.15,3.47-6.15,5.29l-.73.62-.22.15,3.5-3.36a2.08,2.08,0,0,0,.39-2.66l.37-.55c1.49-2.18-1.86-4.74-3.65-2.81L275.9,240.18a2.26,2.26,0,0,0-.64,1.8,24.79,24.79,0,0,0-3.93,4c-1.54,2,1.33,4.07,3.18,3.18L277,248a7.55,7.55,0,0,0-.49,2.18,2.34,2.34,0,0,0,3.5,2l2.78-1.72-.34.63a2.3,2.3,0,0,0,1.57,3.39c-2.24,1.84-4.41,3.76-6.48,5.8-1.85,1.82.56,5.1,2.81,3.65l3.06-2L282,263.25c-1.86,1.8.59,5.15,2.81,3.65L296,259.37c.81-.37,1.6-.83,2.36-1.26a19.81,19.81,0,0,0,4.63-3.5,2.47,2.47,0,0,0-1.23-4l1.54-1.5a2.23,2.23,0,0,0,.18-3,2.34,2.34,0,0,0-1-4,26.59,26.59,0,0,0,3-4.84l3.87-3.31C311.41,232.22,308.8,228.92,306.58,230.29Z"
            transform="translate(-270.89 -218.05)" />
        <path
            d="M289,258.12c-3.19,0-7.83-2.39-8-2.49a2.4,2.4,0,0,1-1-3.21l.87-1.69a2.31,2.31,0,0,1,3.19-1s3.31,1.83,5.23,1.83a4.55,4.55,0,0,0,2.79-.81,2.61,2.61,0,0,0,1-2.24,2.73,2.73,0,0,0-1.18-2.34,6.05,6.05,0,0,0-3.58-.92,8.79,8.79,0,0,0-1.81.26,1.87,1.87,0,0,1-2.45-1.88v-.91a6.4,6.4,0,0,1,1.32-3.61l3-3.51c.22-.26.23-.41.22-.43s-.13-.11-.47-.11H283a2.39,2.39,0,0,1-2.38-2.38v-1.64a2.38,2.38,0,0,1,2.38-2.37h13.46a2.37,2.37,0,0,1,2.38,2.37v.64a6.21,6.21,0,0,1-1.35,3.59l-3.29,3.76a.7.7,0,0,0-.23.66.75.75,0,0,0,.53.45,9,9,0,0,1,3.7,2.42,8.56,8.56,0,0,1,2,5.57,9.08,9.08,0,0,1-3.18,7.32A12,12,0,0,1,289,258.12Zm-6.12-7.59a1.13,1.13,0,0,0-.36.06,1.19,1.19,0,0,0-.75.62l-.88,1.69a1.33,1.33,0,0,0,.57,1.78c.05,0,4.61,2.38,7.54,2.38a11,11,0,0,0,7.3-2.38,8,8,0,0,0,2.8-6.51,7.52,7.52,0,0,0-1.73-4.9,8,8,0,0,0-3.21-2.08,1.8,1.8,0,0,1-1.23-1.18,1.77,1.77,0,0,1,.46-1.64l3.3-3.76a5.26,5.26,0,0,0,1.08-2.89v-.64a1.32,1.32,0,0,0-1.32-1.31H283a1.32,1.32,0,0,0-1.32,1.31v1.64A1.32,1.32,0,0,0,283,234h5.08a1.29,1.29,0,0,1,1.06,2.28l-3,3.52a5.31,5.31,0,0,0-1.07,2.92v.91a.88.88,0,0,0,.32.74.9.9,0,0,0,.8.12,9.6,9.6,0,0,1,2.08-.3,7,7,0,0,1,4.2,1.12,3.75,3.75,0,0,1,1.62,3.2,3.66,3.66,0,0,1-1.43,3.09,5.59,5.59,0,0,1-3.43,1c-2.2,0-5.6-1.89-5.75-2A1.22,1.22,0,0,0,282.86,250.53Z"
            transform="translate(-270.89 -218.05)" />
        <path class="cls-2"
            d="M301.65,249.37v-5.54L300,242.21l1.61-1.61,1.46,1.46A4.21,4.21,0,0,1,306,241h.23v2.3H306a2,2,0,0,0-1.46.62,2,2,0,0,0-.62,1.45v4.05Z"
            transform="translate(-270.52 -218.05)" />
        <path class="cls-2"
            d="M316.1,238.4v8.43l1.62,1.61-1.62,1.62-1.45-1.47a4.27,4.27,0,0,1-2.94,1.12,4.38,4.38,0,0,1,0-8.76,4.16,4.16,0,0,1,2.08.54V238.4Zm-6.46,6.92a2.06,2.06,0,0,0,3.53,1.47,2,2,0,0,0,0-2.92,2.08,2.08,0,0,0-3.53,1.45Z"
            transform="translate(-270.22 -218.05)" />
        <path class="cls-1" d="M313.12,226.56a1.15,1.15,0,1,1-1.15-1.15A1.15,1.15,0,0,1,313.12,226.56Z"
            transform="translate(-270.89 -218.05)" />
        <circle class="cls-1" cx="5.1" cy="37.15" r="1.28" />
        <path class="cls-1" d="M274.18,235.24a.62.62,0,0,1-.62.62.62.62,0,0,1,0-1.24A.62.62,0,0,1,274.18,235.24Z"
            transform="translate(-270.89 -218.05)" />
        <path class="cls-1" d="M309.05,259a1.24,1.24,0,0,1-2.48,0,1.24,1.24,0,0,1,2.48,0Z"
            transform="translate(-270.89 -218.05)" />
        <path class="cls-1"
            d="M308.17,254.71a.53.53,0,0,1,.53-.53.53.53,0,0,1,.53.53.53.53,0,0,1-.53.53A.52.52,0,0,1,308.17,254.71Z"
            transform="translate(-270.89 -218.05)" />
        <path d="M275.56,246.48a1.06,1.06,0,1,1-1.06-1.06A1.05,1.05,0,0,1,275.56,246.48Z"
            transform="translate(-270.89 -218.05)" />
        <circle cx="24.66" cy="4.93" r="1.37" />
        <path d="M289.58,263.52A1.55,1.55,0,1,1,288,262,1.55,1.55,0,0,1,289.58,263.52Z"
            transform="translate(-270.89 -218.05)" />
        <circle cx="39.17" cy="14.42" r="0.48" />
    </g>
</svg>