<svg xmlns="http://www.w3.org/2000/svg" viewBox="0 0 47.54 49.23" xmlns:v="https://vecta.io/nano"><path d="M35.69 12.24l-2.49 1.53a2.59 2.59 0 0 0-3-.61l-4.78 2.3 2.24-2.12.63-.43a2.46 2.46 0 0 0 .72-.76q2.85-2.4 5.63-4.86c2.27-2-1-5.13-3.28-3.29l-6.15 5.29-.73.62-.22.15 3.5-3.36a2.08 2.08 0 0 0 .39-2.66l.37-.55c1.49-2.18-1.86-4.74-3.65-2.81L5.01 22.13a2.26 2.26 0 0 0-.64 1.8 24.79 24.79 0 0 0-3.93 4c-1.54 2 1.33 4.07 3.18 3.18l2.49-1.16a7.55 7.55 0 0 0-.49 2.18 2.34 2.34 0 0 0 3.5 2l2.78-1.72-.34.63a2.3 2.3 0 0 0 1.57 3.39l-6.48 5.8c-1.85 1.82.56 5.1 2.81 3.65l3.06-2-1.41 1.32c-1.86 1.8.59 5.15 2.81 3.65l11.19-7.53c.81-.37 1.6-.83 2.36-1.26a19.81 19.81 0 0 0 4.63-3.5 2.47 2.47 0 0 0-1.23-4l1.54-1.5a2.23 2.23 0 0 0 .18-3 2.34 2.34 0 0 0-1-4 26.59 26.59 0 0 0 3-4.84l3.87-3.31c2.06-1.74-.55-5.04-2.77-3.67z" fill="#79fc79"/><path d="M18.11 40.07c-3.19 0-7.83-2.39-8-2.49a2.4 2.4 0 0 1-1-3.21l.87-1.69a2.31 2.31 0 0 1 3.19-1c0 0 3.31 1.83 5.23 1.83a4.55 4.55 0 0 0 2.79-.81 2.61 2.61 0 0 0 1-2.24 2.73 2.73 0 0 0-1.18-2.34 6.05 6.05 0 0 0-3.58-.92 8.79 8.79 0 0 0-1.81.26 1.87 1.87 0 0 1-2.45-1.88v-.91a6.4 6.4 0 0 1 1.32-3.61l3-3.51c.22-.26.23-.41.22-.43s-.13-.11-.47-.11h-5.13a2.39 2.39 0 0 1-2.38-2.38v-1.64a2.38 2.38 0 0 1 2.38-2.37h13.46a2.37 2.37 0 0 1 2.38 2.37v.64a6.21 6.21 0 0 1-1.35 3.59l-3.29 3.76a.7.7 0 0 0-.23.66.75.75 0 0 0 .53.45 9 9 0 0 1 3.7 2.42 8.56 8.56 0 0 1 2 5.57 9.08 9.08 0 0 1-3.18 7.32 12 12 0 0 1-8.02 2.67zm-6.12-7.59a1.13 1.13 0 0 0-.36.06 1.19 1.19 0 0 0-.75.62L10 34.85a1.33 1.33 0 0 0 .57 1.78c.05 0 4.61 2.38 7.54 2.38a11 11 0 0 0 7.3-2.38 8 8 0 0 0 2.8-6.51 7.52 7.52 0 0 0-1.73-4.9 8 8 0 0 0-3.21-2.08 1.8 1.8 0 0 1-1.23-1.18 1.77 1.77 0 0 1 .46-1.64l3.3-3.76a5.26 5.26 0 0 0 1.08-2.89v-.64a1.32 1.32 0 0 0-1.32-1.31H12.11a1.32 1.32 0 0 0-1.32 1.31v1.64a1.32 1.32 0 0 0 1.32 1.28h5.08a1.29 1.29 0 0 1 1.06 2.28l-3 3.52a5.31 5.31 0 0 0-1.07 2.92v.91a.88.88 0 0 0 .32.74.9.9 0 0 0 .8.12 9.6 9.6 0 0 1 2.08-.3 7 7 0 0 1 4.2 1.12 3.75 3.75 0 0 1 1.62 3.2 3.66 3.66 0 0 1-1.43 3.09 5.59 5.59 0 0 1-3.43 1c-2.2 0-5.6-1.89-5.75-2a1.22 1.22 0 0 0-.62-.07z"/><path d="M31.13 31.32v-5.54l-1.65-1.62 1.61-1.61 1.46 1.46a4.21 4.21 0 0 1 2.93-1.06h.23v2.3h-.23a2 2 0 0 0-1.46.62 2 2 0 0 0-.62 1.45v4.05zm14.75-10.97v8.43l1.62 1.61-1.62 1.62-1.45-1.47a4.27 4.27 0 0 1-2.94 1.12 4.38 4.38 0 0 1 0-8.76 4.16 4.16 0 0 1 2.08.54v-3.09zm-6.46 6.92a2.06 2.06 0 0 0 3.53 1.47 2 2 0 0 0 0-2.92 2.08 2.08 0 0 0-3.53 1.45z" fill="none" stroke="#000" stroke-miterlimit="10"/><g fill="#79fc79"><path d="M42.23 8.51a1.15 1.15 0 0 1-1.963.813 1.15 1.15 0 0 1 .813-1.963 1.15 1.15 0 0 1 1.15 1.15z"/><circle cx="5.1" cy="37.15" r="1.28"/><path d="M3.29 17.19a.62.62 0 1 1-.62-.62.62.62 0 0 1 .62.62zm34.87 23.76a1.24 1.24 0 1 1-2.48 0 1.24 1.24 0 1 1 2.48 0zm-.88-4.29a.53.53 0 1 1 .53.53.52.52 0 0 1-.53-.53z"/></g><path d="M4.67 28.43a1.06 1.06 0 1 1-2.12 0 1.06 1.06 0 0 1 1.06-1.06 1.05 1.05 0 0 1 1.06 1.06z"/><circle cx="24.66" cy="4.93" r="1.37"/><path d="M18.69 45.47a1.55 1.55 0 0 1-3.099.06 1.55 1.55 0 0 1 2.624-1.147 1.55 1.55 0 0 1 .475 1.087z"/><circle cx="39.17" cy="14.42" r=".48"/></svg>