<svg id="Capa_1" enable-background="new 0 0 512.01 512.01" height="512" viewBox="0 0 512.01 512.01" width="512"
    xmlns="http://www.w3.org/2000/svg">
    <g>
        <g>
            <g>
                <g>
                    <g>
                        <path
                            d="m477.095 504.51h-442.242c-4.636 0-6.788-5.753-3.29-8.795l104.58-90.964c1.825-1.587 4.161-2.461 6.58-2.461h226.501c2.418 0 4.755.874 6.58 2.461l104.581 90.964c3.498 3.042 1.346 8.795-3.29 8.795z"
                            fill="#bcea73" />
                        <ellipse cx="255.975" cy="445.947" fill="#a3e440" rx="81.423" ry="13.678" />
                        <path d="m218.505 402.29h37.47v102.22h-37.47z" fill="#f8f3f1" />
                        <path
                            d="m255.975 432.27v27.35c-13.51 0-26.25-.55-37.47-1.53v-24.29c11.22-.98 23.96-1.53 37.47-1.53z"
                            fill="#efe2dd" />
                        <path d="m185.045 402.29v102.22h-67.58v-83.51l18.68-16.25c1.82-1.59 4.16-2.46 6.58-2.46z"
                            fill="#b9acac" />
                        <path d="m185.045 439.23v13.44c-6.68-1.99-10.49-4.28-10.49-6.72s3.81-4.74 10.49-6.72z"
                            fill="#9e9797" />
                        <path
                            d="m477.099 504.506h-45.787c4.642 0 6.787-5.745 3.288-8.792l-104.577-90.962c-1.825-1.584-4.161-2.466-6.577-2.466h45.777c2.416 0 4.752.882 6.577 2.466l104.587 90.962c3.499 3.047 1.343 8.792-3.288 8.792z"
                            fill="#a3e440" />
                        <path
                            d="m383.28 411.253c-7.147 7.148-69.243 69.3-93.116 93.256h69.168c20.384-20.292 40.723-40.63 60.996-61.032z"
                            fill="#f8f3f1" />
                        <path
                            d="m420.328 443.478-37.05-32.223c-7.098 7.099-14.197 14.197-21.293 21.297l37.085 32.257c7.09-7.107 14.182-14.21 21.258-21.331z"
                            fill="#efe2dd" />
                    </g>
                    <g>
                        <path
                            d="m394.529 194.7c0-76.856-62.576-139.096-139.558-138.551-75.483.534-137.094 62.214-137.549 137.697-.247 41.018 17.332 77.932 45.444 103.454 42.13 38.248 71.881 88.204 86.178 143.281 1.855 7.148 12.005 7.148 13.86 0l.001-.003c14.382-55.405 44.811-105.174 86.915-143.952 27.487-25.318 44.709-61.609 44.709-101.926z"
                            fill="#31a7fb" />
                        <path
                            d="m178.825 110.12c0 13.61-11.03 24.63-24.64 24.63-7.42 0-14.07-3.28-18.58-8.47 8.13-14.21 18.69-26.86 31.12-37.36 7.24 4.28 12.1 12.18 12.1 21.2z"
                            fill="#1c96f9" />
                        <path
                            d="m394.526 194.695c0 40.323-17.214 76.616-44.704 101.93-42.107 38.779-72.535 88.546-86.922 143.947v.01c-.922 3.579-3.93 5.364-6.928 5.364s-6.005-1.785-6.928-5.364c-3.529-13.605-8.01-26.899-13.384-39.782 16.602-39.441 41.716-74.931 73.467-104.176 27.48-25.315 44.704-61.607 44.704-101.93 0-69.598-51.301-127.205-118.162-137.05 6.306-.942 12.753-1.444 19.299-1.494 76.989-.55 139.558 61.689 139.558 138.545z"
                            fill="#1c96f9" />
                        <circle cx="255.974" cy="194.7" fill="#eaf9fa" r="63.546" />
                        <path
                            d="m319.515 194.695c0 35.1-28.443 63.552-63.542 63.552-6.396 0-12.582-.942-18.407-2.717 26.117-7.88 45.135-32.142 45.135-60.835s-19.019-52.945-45.135-60.835c5.825-1.765 12.011-2.707 18.407-2.707 35.099 0 63.542 28.453 63.542 63.542z"
                            fill="#d4f2f6" />
                    </g>
                    <g>
                        <path
                            d="m429.891 60.605-8.803 24.004c-2.196 5.987-10.627 6.088-12.965.155l-26.701-67.755c-2.223-5.642 3.354-11.22 8.996-8.996l67.755 26.7c5.933 2.338 5.832 10.77-.155 12.965l-24.004 8.803c-1.913.702-3.421 2.21-4.123 4.124z"
                            fill="#70d9e6" />
                        <path
                            d="m458.014 47.679-9.343 3.428-63.697-25.097-3.551-9.005c-2.227-5.64 3.35-11.217 8.995-8.995l67.753 26.701c5.935 2.344 5.837 10.77-.157 12.968z"
                            fill="#22c7db" />
                    </g>
                </g>
                <g>
                    <circle cx="154.189" cy="85.485" fill="#bcea73" r="24.631" />
                    <path
                        d="m178.819 85.482c0 13.608-11.031 24.639-24.628 24.639-4.559 0-8.836-1.238-12.494-3.411 9.669-2.229 16.873-10.885 16.873-21.229 0-10.333-7.193-19-16.862-21.229 3.658-2.161 7.924-3.399 12.483-3.399 13.597.001 24.628 11.032 24.628 24.629z"
                        fill="#99d53b" />
                </g>
                <g>
                    <circle cx="457.553" cy="258.243" fill="#bcea73" r="24.631" />
                    <path
                        d="m482.183 258.24c0 13.608-11.031 24.639-24.628 24.639-4.559 0-8.836-1.238-12.494-3.411 9.669-2.229 16.873-10.885 16.873-21.229 0-10.333-7.193-19-16.862-21.229 3.658-2.161 7.924-3.399 12.483-3.399 13.597 0 24.628 11.031 24.628 24.629z"
                        fill="#99d53b" />
                </g>
            </g>
            <g>
                <circle cx="101.948" cy="28.038" fill="#a8e7ef" r="20.529" />
                <path
                    d="m122.476 28.036c0 11.342-9.194 20.535-20.526 20.535-3.799 0-7.364-1.032-10.413-2.843 8.058-1.857 14.063-9.072 14.063-17.693 0-8.612-5.995-15.836-14.053-17.693 3.049-1.801 6.604-2.833 10.404-2.833 11.331.001 20.525 9.194 20.525 20.527z"
                    fill="#70d9e6" />
            </g>
        </g>
        <g>
            <path
                d="m485.307 490.056-104.58-90.964c-3.19-2.774-7.274-4.302-11.501-4.302h-82.021c7.307-15.844 16.06-31.024 26.167-45.369 3.137-.426 6.29-.864 9.442-1.315 4.101-.586 6.949-4.386 6.362-8.486-.364-2.544-1.968-4.606-4.111-5.665 9.085-11.234 19.043-21.873 29.836-31.813 10.687-9.843 19.83-21.191 27.176-33.73 2.094-3.574.894-8.168-2.68-10.262s-8.169-.894-10.262 2.68c-6.594 11.256-14.802 21.444-24.396 30.279-14.764 13.598-28.055 28.436-39.751 44.296-1.345.176-2.688.35-4.02.519-4.109.522-7.017 4.277-6.494 8.386.184 1.45.773 2.748 1.636 3.801-18.144 27.403-31.728 57.509-40.136 89.328-7.471-28.298-18.819-55.038-33.638-79.55.05-.002.1-.004.15-.006 4.138-.172 7.354-3.667 7.182-7.806-.172-4.138-3.652-7.37-7.806-7.182-3.036.126-6.041.228-9.011.312-12.905-18.762-27.948-36.032-44.942-51.461-27.542-25.004-43.21-60.671-42.986-97.856.167-27.777 8.961-54.14 25.436-76.51 1.257.15 2.534.236 3.831.236 17.717 0 32.131-14.414 32.131-32.131 0-.545-.014-1.087-.041-1.625 15.568-9.834 33.237-16.356 51.345-18.919 4.101-.581 6.955-4.376 6.375-8.477-.581-4.101-4.372-6.957-8.477-6.375-18.849 2.668-37.266 9.178-53.746 18.943-5.617-9.383-15.878-15.68-27.586-15.68-17.717 0-32.131 14.414-32.131 32.132 0 10.904 5.465 20.551 13.794 26.363-16.812 24.199-25.752 52.357-25.93 81.952-.064 10.685 1.058 21.256 3.272 31.542-5.742 2.511-11.055 5.163-15.822 7.904-3.591 2.064-4.828 6.649-2.764 10.24 1.387 2.413 3.912 3.763 6.509 3.763 1.268 0 2.553-.322 3.731-1 3.729-2.144 7.854-4.239 12.305-6.254 7.805 23.885 21.709 45.641 40.672 62.857 14.403 13.076 27.329 27.549 38.657 43.181-1.148 1.333-1.839 3.068-1.819 4.965.043 4.115 3.392 7.422 7.498 7.422h.08c.89-.009 1.8-.026 2.701-.039 7.502 11.6 14.162 23.764 19.933 36.41h-82.152c-4.227 0-8.312 1.528-11.502 4.302l-44.044 38.31c-3.125 2.718-3.455 7.456-.736 10.581 1.483 1.706 3.566 2.579 5.662 2.578 1.746 0 3.499-.606 4.919-1.841l12.943-11.258v59.548h-68.464l27.722-24.113c3.125-2.718 3.456-7.456.737-10.581-2.718-3.126-7.455-3.456-10.581-.737l-32.739 28.477c-3.978 3.46-5.354 8.887-3.507 13.825s6.448 8.129 11.72 8.129h442.242c5.272 0 9.873-3.191 11.72-8.129s.468-10.365-3.51-13.825zm-331.118-421.703c9.446 0 17.131 7.686 17.131 17.132s-7.685 17.131-17.131 17.131-17.131-7.685-17.131-17.131 7.685-17.132 17.131-17.132zm154.047 428.657c24.096-24.151 61.315-61.407 75.402-75.505l25.719 22.37c-16.901 16.988-34.366 34.457-53.123 53.135zm-38.082-54.506c.003-.014.007-.028.011-.042 2.888-11.124 6.45-22.028 10.639-32.671h88.422c.609 0 1.198.22 1.658.62l1.411 1.227c-17.028 17.041-63.623 63.685-85.243 85.373h-23.576v-45.594c3.223-1.9 5.657-5.021 6.678-8.913zm-28.369-.04c1.015 3.91 3.455 7.047 6.69 8.952v45.594h-22.472v-87.22h5.21c4.135 10.61 7.675 21.513 10.572 32.674zm-30.782 54.546h-18.457v-87.22h18.457zm-86.038-72.595 16.101-14.005c.459-.4 1.048-.62 1.658-.62h34.823v87.22h-52.582zm252.518 72.595c15.047-15.008 29.321-29.299 43.217-43.269l49.745 43.269z" />
            <path
                d="m272.655 64.704c65.204 8.279 114.375 64.166 114.375 129.996 0 11.365-1.464 22.665-4.352 33.585-1.059 4.004 1.329 8.109 5.334 9.168.643.17 1.287.251 1.922.251 3.321 0 6.357-2.223 7.246-5.585 3.218-12.171 4.85-24.761 4.85-37.419 0-6.2-.401-12.319-1.161-18.335 5.506-1.962 10.664-4.013 15.367-6.118 3.781-1.692 5.473-6.129 3.781-9.91-1.692-3.78-6.13-5.475-9.91-3.781-3.678 1.646-7.676 3.262-11.927 4.829-13.657-58.164-62.276-103.771-123.635-111.562-4.115-.519-7.863 2.387-8.385 6.496s2.386 7.863 6.495 8.385z" />
            <path
                d="m184.929 194.7c0 39.175 31.871 71.045 71.046 71.045s71.045-31.871 71.045-71.045-31.871-71.045-71.045-71.045-71.046 31.87-71.046 71.045zm71.046-56.046c30.903 0 56.045 25.142 56.045 56.045s-25.142 56.045-56.045 56.045c-30.904 0-56.046-25.142-56.046-56.045s25.142-56.045 56.046-56.045z" />
            <path
                d="m449.748 104.758c.377 3.876 3.641 6.774 7.456 6.774.243 0 .489-.012.735-.036 4.123-.401 7.14-4.069 6.738-8.191-.715-7.345-2.474-14.554-5.227-21.425-1.541-3.845-5.905-5.713-9.751-4.172-3.845 1.541-5.713 5.907-4.172 9.751 2.224 5.55 3.644 11.371 4.221 17.299z" />
            <path
                d="m434.026 142.285c-3.181 2.653-3.608 7.382-.955 10.563 1.483 1.778 3.615 2.696 5.763 2.696 1.694 0 3.397-.571 4.8-1.741 6.247-5.21 11.191-10.96 14.695-17.088 2.056-3.596.808-8.178-2.788-10.233s-8.178-.808-10.233 2.788c-2.615 4.572-6.411 8.951-11.282 13.015z" />
            <path
                d="m120.887 351.171c.588.141 1.177.208 1.757.208 3.388 0 6.461-2.312 7.287-5.75.967-4.028-1.514-8.077-5.542-9.044-6.625-1.59-12.701-3.479-18.06-5.611-3.849-1.533-8.21.346-9.742 4.195-1.532 3.848.346 8.21 4.194 9.742 6.022 2.396 12.787 4.503 20.106 6.26z" />
            <path
                d="m171.781 357.858c.129.007.259.01.387.01 3.967 0 7.28-3.112 7.484-7.119.21-4.137-2.972-7.661-7.109-7.871-6.814-.347-13.383-.857-19.524-1.518-4.121-.441-7.816 2.536-8.259 6.655s2.537 7.816 6.655 8.259c6.419.69 13.271 1.223 20.366 1.584z" />
            <path
                d="m271.332 339.301c-6.721.673-13.376 1.271-19.782 1.778-4.129.327-7.211 3.939-6.885 8.068.311 3.928 3.595 6.909 7.468 6.909.199 0 .399-.008.6-.024 6.509-.515 13.269-1.123 20.092-1.806 4.122-.413 7.128-4.088 6.716-8.21-.413-4.122-4.092-7.126-8.209-6.715z" />
            <path
                d="m65.906 282.928c.755.24 1.52.354 2.272.354 3.18 0 6.132-2.039 7.146-5.232 1.658-5.221 4.446-10.204 8.287-14.812 2.652-3.182 2.223-7.911-.958-10.563-3.182-2.651-7.911-2.224-10.563.958-5.091 6.107-8.813 12.794-11.062 19.876-1.254 3.948.93 8.165 4.878 9.419z" />
            <path
                d="m72.974 327.378c1.469 1.504 3.417 2.259 5.365 2.259 1.89 0 3.782-.71 5.24-2.135 2.963-2.895 3.019-7.643.124-10.606-4.085-4.182-6.884-8.734-8.557-13.917-1.272-3.942-5.499-6.109-9.44-4.835-3.942 1.272-6.107 5.499-4.835 9.44 2.367 7.337 6.439 13.997 12.103 19.794z" />
            <path
                d="m369.845 325.328c-6.537 1.17-13.143 2.307-19.632 3.377-4.087.674-6.854 4.534-6.179 8.621.606 3.674 3.786 6.28 7.391 6.28.405 0 .816-.033 1.229-.101 6.557-1.082 13.23-2.229 19.834-3.412 4.077-.73 6.791-4.627 6.061-8.705-.729-4.077-4.628-6.79-8.704-6.06z" />
            <path
                d="m418.664 315.655c-.072.016-7.308 1.658-19.457 4.102-4.061.816-6.691 4.771-5.875 8.831.716 3.562 3.846 6.023 7.345 6.023.49 0 .987-.048 1.486-.148 12.356-2.485 19.528-4.113 19.828-4.181 4.039-.919 6.568-4.938 5.649-8.977-.918-4.039-4.935-6.572-8.976-5.65z" />
            <path
                d="m401.144 87.513c2.195 5.571 7.451 9.144 13.424 9.144.06 0 .12 0 .179-.001 6.046-.072 11.299-3.787 13.381-9.464l8.713-23.758 23.759-8.714c5.677-2.082 9.392-7.334 9.464-13.381s-3.516-11.386-9.143-13.604l-67.754-26.7c-5.432-2.142-11.372-.906-15.501 3.222-4.129 4.129-5.364 10.068-3.223 15.501zm52.9-46.366-22.611 8.293c-3.99 1.463-7.119 4.591-8.583 8.582v.001l-8.293 22.612-25.682-65.169z" />
            <path
                d="m425.422 258.243c0 17.717 14.414 32.131 32.131 32.131s32.131-14.414 32.131-32.131-14.414-32.131-32.131-32.131-32.131 14.413-32.131 32.131zm49.263 0c0 9.446-7.685 17.131-17.131 17.131s-17.131-7.685-17.131-17.131 7.685-17.131 17.131-17.131 17.131 7.684 17.131 17.131z" />
            <path
                d="m459.662 365.116c-2.929-2.929-7.678-2.929-10.606 0l-3.995 3.995-3.995-3.995c-2.929-2.93-7.678-2.929-10.606 0-2.929 2.929-2.929 7.677 0 10.606l3.995 3.995-3.995 3.995c-2.929 2.929-2.929 7.678 0 10.606 1.464 1.464 3.384 2.197 5.303 2.197s3.839-.732 5.303-2.197l3.995-3.995 3.995 3.995c1.464 1.465 3.384 2.197 5.303 2.197s3.839-.732 5.303-2.197c2.929-2.929 2.929-7.677 0-10.606l-3.995-3.995 3.995-3.995c2.929-2.929 2.929-7.677 0-10.606z" />
            <path
                d="m63.502 121.61c1.464 1.464 3.384 2.197 5.303 2.197s3.839-.732 5.303-2.197l7.606-7.606 7.606 7.606c1.464 1.465 3.384 2.197 5.303 2.197s3.839-.732 5.303-2.197c2.929-2.929 2.929-7.678 0-10.606l-7.606-7.606 7.606-7.606c2.929-2.929 2.929-7.678 0-10.606-2.929-2.929-7.678-2.929-10.606 0l-7.606 7.606-7.606-7.606c-2.929-2.93-7.678-2.929-10.606 0-2.929 2.929-2.929 7.678 0 10.606l7.606 7.606-7.606 7.606c-2.929 2.929-2.929 7.678 0 10.606z" />
            <path
                d="m101.949 56.067c15.455 0 28.028-12.574 28.028-28.029s-12.573-28.028-28.028-28.028-28.029 12.573-28.029 28.029 12.574 28.028 28.029 28.028zm0-41.057c7.184 0 13.028 5.845 13.028 13.029s-5.844 13.029-13.028 13.029-13.029-5.845-13.029-13.029 5.845-13.029 13.029-13.029z" />
        </g>
    </g>
</svg>