<svg id="Saac_logo" data-name="Saac Logo" xmlns="http://www.w3.org/2000/svg" viewBox="0 0 403 403">
    <defs>
        <style>
            .cls-1 {
                fill: #fff;
            }

            .cls-2 {
                fill: #29c0ef;
            }

            .cls-3 {
                fill: #f99026;
            }

            .cls-4 {
                fill: #312e3d;
            }
        </style>
    </defs>
    <title>logo_bg</title>
    <g id="Logo_Bg" data-name="Logo Bg">
        <circle id="Logo_Bg-2" data-name="Logo Bg" class="cls-1" cx="201.5" cy="201.5" r="201.5" />
        <g id="Background">
            <g id="Blue">
                <path class="cls-2"
                    d="M300.89,270.06h30.68s53.88-36.87,126.76-47.63c71-10.5,84.77,19.37,84.77,19.37s8.88,14.54,2.42,33.91c0,0,27-37.56-1.61-63-14-12.46-42.86-13.28-69-10.79a304.4,304.4,0,0,0-84.86,20.93C364.94,233,329.49,249.3,300.89,270.06Z"
                    transform="translate(-188 -101.98)" />
                <path class="cls-2"
                    d="M226.61,349.19h16.15s-16.15,23.41-8.88,49.25C233.88,398.44,212.88,386.32,226.61,349.19Z"
                    transform="translate(-188 -101.98)" />
            </g>
            <g id="Orange">
                <path class="cls-3"
                    d="M261.33,270.06h15.34s58.13-49.25,130.79-69.43S506,199,506,199s0-21-51.67-21S334,216.78,334,216.78,302.5,232.12,261.33,270.06Z"
                    transform="translate(-188 -101.98)" />
                <path class="cls-3"
                    d="M407.46,383.1H380.82s-47.64,26.64-103.35,16.14c0,0-28.25-5.65-21-36.33,0,0-18.42,25,.57,42.94a33.64,33.64,0,0,0,14.28,7.83C287.89,418.2,334.44,424.37,407.46,383.1Z"
                    transform="translate(-188 -101.98)" />
            </g>
        </g>
        <g id="College">
            <path class="cls-4"
                d="M443.88,368a4.5,4.5,0,0,1-2.53-.75,5.17,5.17,0,0,1-1.78-2,1.08,1.08,0,0,1-.16-.55.83.83,0,0,1,.3-.67.88.88,0,0,1,.59-.25.86.86,0,0,1,.47.14,1.48,1.48,0,0,1,.38.37,3.94,3.94,0,0,0,1.15,1.3,2.71,2.71,0,0,0,1.58.49,3.13,3.13,0,0,0,2.82-1.64,3.48,3.48,0,0,0,.42-1.72V351.76a.94.94,0,0,1,.29-.69,1,1,0,0,1,.7-.28.92.92,0,0,1,.68.28,1,1,0,0,1,.26.69v10.91a5.41,5.41,0,0,1-.67,2.68,5.27,5.27,0,0,1-1.84,1.91A5,5,0,0,1,443.88,368Z"
                transform="translate(-188 -101.98)" />
            <path class="cls-4"
                d="M453.3,367.69a1,1,0,0,1-.75-.29,1.16,1.16,0,0,1-.26-.79v-.49a1.2,1.2,0,0,1,.26-.82,1,1,0,0,1,.75-.29h.19a1,1,0,0,1,.75.29,1.2,1.2,0,0,1,.26.82v.49a1.16,1.16,0,0,1-.26.79.92.92,0,0,1-.75.29Z"
                transform="translate(-188 -101.98)" />
            <path class="cls-4"
                d="M465.08,368a7.91,7.91,0,0,1-3.27-.67,8.21,8.21,0,0,1-2.64-1.84,8.52,8.52,0,0,1-1.77-2.77,9.68,9.68,0,0,1,0-6.87,8.52,8.52,0,0,1,1.77-2.77,8.1,8.1,0,0,1,5.91-2.49,9.41,9.41,0,0,1,2.27.28,6.65,6.65,0,0,1,2,.86.7.7,0,0,1,.34.34,1,1,0,0,1,.1.46,1,1,0,0,1-.26.7.82.82,0,0,1-.61.29.81.81,0,0,1-.27-.05l-.26-.1a7.72,7.72,0,0,0-1.54-.61,6.22,6.22,0,0,0-1.75-.23,6.08,6.08,0,0,0-3.25.89,6.42,6.42,0,0,0-2.26,2.42,7.67,7.67,0,0,0,0,6.9,6.38,6.38,0,0,0,2.26,2.43,6,6,0,0,0,3.25.9,7.09,7.09,0,0,0,1.9-.27,6.53,6.53,0,0,0,1.66-.68l-.16.58v-5.1l.37.34h-3.51a.87.87,0,0,1-.66-.28,1,1,0,0,1-.26-.69,1,1,0,0,1,.26-.69.9.9,0,0,1,.66-.27h4.18a.82.82,0,0,1,.66.29,1,1,0,0,1,.26.7v5.58a1,1,0,0,1-.13.51,1.27,1.27,0,0,1-.33.36,9.58,9.58,0,0,1-2.29,1.13A8.11,8.11,0,0,1,465.08,368Z"
                transform="translate(-188 -101.98)" />
            <path class="cls-4"
                d="M474,367.69a1,1,0,0,1-.75-.29,1.16,1.16,0,0,1-.26-.79v-.49a1.2,1.2,0,0,1,.26-.82A1,1,0,0,1,474,365h.18a1,1,0,0,1,.76.29,1.2,1.2,0,0,1,.25.82v.49a1.15,1.15,0,0,1-.25.79.93.93,0,0,1-.76.29Z"
                transform="translate(-188 -101.98)" />
            <path class="cls-4"
                d="M479.32,350.79h8.18a.94.94,0,0,1,.67.27.91.91,0,0,1,.27.68.87.87,0,0,1-.27.66,1,1,0,0,1-.67.26h-7.4l.21-.41v6.11l-.23-.26h6.39a.92.92,0,0,1,.94.94.84.84,0,0,1-.28.66.93.93,0,0,1-.66.26h-6.32l.16-.22V366l-.14-.17h7.33a.92.92,0,0,1,.67.29.94.94,0,0,1,.27.65.91.91,0,0,1-.27.68.94.94,0,0,1-.67.27h-8.18a.84.84,0,0,1-.65-.29,1,1,0,0,1-.26-.7v-15a1,1,0,0,1,.26-.69A.87.87,0,0,1,479.32,350.79Z"
                transform="translate(-188 -101.98)" />
            <path class="cls-4"
                d="M491.73,367.69a.94.94,0,0,1-.75-.29,1.11,1.11,0,0,1-.27-.79v-.49a1.16,1.16,0,0,1,.27-.82,1,1,0,0,1,.75-.29h.18a1,1,0,0,1,.76.29,1.25,1.25,0,0,1,.25.82v.49a1.2,1.2,0,0,1-.25.79.93.93,0,0,1-.76.29Z"
                transform="translate(-188 -101.98)" />
            <path class="cls-4"
                d="M507.76,351.91a.83.83,0,0,1,.45.65,1.1,1.1,0,0,1-.22.8.7.7,0,0,1-.53.34,1.23,1.23,0,0,1-.64-.15,6.81,6.81,0,0,0-1.64-.76,5.84,5.84,0,0,0-1.83-.28,6.07,6.07,0,0,0-2.48.5,5.89,5.89,0,0,0-2,1.39,6.2,6.2,0,0,0-1.28,2.12,7.76,7.76,0,0,0-.46,2.74,8,8,0,0,0,.48,2.85,6.34,6.34,0,0,0,1.32,2.14,5.67,5.67,0,0,0,1.95,1.34,6.26,6.26,0,0,0,2.43.46,6.1,6.1,0,0,0,1.81-.27,6.4,6.4,0,0,0,1.66-.77,1,1,0,0,1,.64-.12.82.82,0,0,1,.55.34,1.11,1.11,0,0,1,.21.81.81.81,0,0,1-.44.61,7.63,7.63,0,0,1-1.31.67,8.75,8.75,0,0,1-1.53.47,7.74,7.74,0,0,1-1.59.17,8.23,8.23,0,0,1-3.13-.6,7.86,7.86,0,0,1-2.59-1.75,8.12,8.12,0,0,1-1.78-2.74,10.08,10.08,0,0,1,0-7.07,8.23,8.23,0,0,1,1.74-2.73,8.1,8.1,0,0,1,2.59-1.82,8.21,8.21,0,0,1,5.54-.31A7.77,7.77,0,0,1,507.76,351.91Z"
                transform="translate(-188 -101.98)" />
        </g>
        <g id="Tag">
            <path class="cls-4"
                d="M241.55,341.49a4.51,4.51,0,0,1-3.42-1.38,1.24,1.24,0,0,1-.17-.23.67.67,0,0,1-.06-.28.6.6,0,0,1,.16-.42.52.52,0,0,1,.41-.19.48.48,0,0,1,.36.17,4.31,4.31,0,0,0,1.22.86,3.45,3.45,0,0,0,1.47.3,3,3,0,0,0,1.14-.21,2,2,0,0,0,.81-.58,1.35,1.35,0,0,0,.3-.87,1.56,1.56,0,0,0-.33-1,2.54,2.54,0,0,0-.89-.65,6.8,6.8,0,0,0-1.32-.44,7.8,7.8,0,0,1-1.21-.41,3.53,3.53,0,0,1-1-.59,2.2,2.2,0,0,1-.62-.85,2.81,2.81,0,0,1-.23-1.17,2.57,2.57,0,0,1,.44-1.49,2.8,2.8,0,0,1,1.19-1,4.2,4.2,0,0,1,1.75-.35,4.61,4.61,0,0,1,1.66.3,3.25,3.25,0,0,1,1.26.82.79.79,0,0,1,.28.55.57.57,0,0,1-.18.41.53.53,0,0,1-.4.19.4.4,0,0,1-.29-.12,2.64,2.64,0,0,0-.62-.51,3.55,3.55,0,0,0-.82-.35,3.06,3.06,0,0,0-.89-.14,3.16,3.16,0,0,0-1.16.2,1.9,1.9,0,0,0-.79.57,1.44,1.44,0,0,0-.28.87,1.41,1.41,0,0,0,.32.94,2.26,2.26,0,0,0,.85.59,7.7,7.7,0,0,0,1.18.42,9.43,9.43,0,0,1,1.3.41,3.7,3.7,0,0,1,1,.57,2.27,2.27,0,0,1,.67.88,3.14,3.14,0,0,1,.24,1.3,2.51,2.51,0,0,1-.45,1.47,3,3,0,0,1-1.21,1A4,4,0,0,1,241.55,341.49Z"
                transform="translate(-188 -101.98)" />
            <path class="cls-4"
                d="M250.8,330.88a2.56,2.56,0,0,1,1.42.4,2.83,2.83,0,0,1,1,1.11,3.62,3.62,0,0,1,0,3.19,2.92,2.92,0,0,1-1,1.14,2.49,2.49,0,0,1-1.42.42h-2.92l.1-.18v3.76a.67.67,0,0,1-.15.44.52.52,0,0,1-.41.18.51.51,0,0,1-.41-.18.67.67,0,0,1-.15-.44v-9.24a.61.61,0,0,1,.17-.43.55.55,0,0,1,.41-.17Zm0,5.11a1.35,1.35,0,0,0,.83-.27,1.94,1.94,0,0,0,.58-.73,2.39,2.39,0,0,0,.21-1,2.26,2.26,0,0,0-.21-1,2,2,0,0,0-.58-.7,1.41,1.41,0,0,0-.83-.26h-2.92l.1-.16v4.27l-.1-.15Z"
                transform="translate(-188 -101.98)" />
            <path class="cls-4"
                d="M258.37,332.43,255,341a.47.47,0,0,1-.2.28.48.48,0,0,1-.3.11.51.51,0,0,1-.4-.15.52.52,0,0,1-.13-.36.47.47,0,0,1,0-.23l3.72-9.41a.54.54,0,0,1,.22-.3.51.51,0,0,1,.34-.08.59.59,0,0,1,.34.1.54.54,0,0,1,.21.28l3.7,9.32a.69.69,0,0,1,.05.24.55.55,0,0,1-.18.43.57.57,0,0,1-.38.16.52.52,0,0,1-.32-.11.62.62,0,0,1-.22-.3l-3.42-8.54Zm-2.66,6.11.49-1.16h4.27l.21,1.16Z"
                transform="translate(-188 -101.98)" />
            <path class="cls-4"
                d="M271.31,331.57a.49.49,0,0,1,.28.4.63.63,0,0,1-.13.49.44.44,0,0,1-.33.21.71.71,0,0,1-.4-.09,4.72,4.72,0,0,0-1-.47,4,4,0,0,0-1.15-.17,3.78,3.78,0,0,0-1.56.31,3.71,3.71,0,0,0-1.22.86,3.85,3.85,0,0,0-.8,1.31,4.79,4.79,0,0,0-.29,1.69,4.85,4.85,0,0,0,.3,1.76,3.86,3.86,0,0,0,.83,1.32A3.48,3.48,0,0,0,267,340a4,4,0,0,0,1.52.29,3.86,3.86,0,0,0,1.13-.17,4.09,4.09,0,0,0,1-.48.63.63,0,0,1,.4-.07.52.52,0,0,1,.34.21.62.62,0,0,1,.13.5.51.51,0,0,1-.27.38,5.69,5.69,0,0,1-.82.41,5.94,5.94,0,0,1-1,.29,4.77,4.77,0,0,1-1,.11,5.18,5.18,0,0,1-2-.38A5,5,0,0,1,265,340a5.11,5.11,0,0,1-1.11-1.7,5.68,5.68,0,0,1-.41-2.23,5.9,5.9,0,0,1,.38-2.14,5.17,5.17,0,0,1,1.09-1.69A5.1,5.1,0,0,1,270,331,4.69,4.69,0,0,1,271.31,331.57Z"
                transform="translate(-188 -101.98)" />
            <path class="cls-4"
                d="M273.92,330.88H279a.65.65,0,0,1,.42.16.57.57,0,0,1,.17.42.53.53,0,0,1-.17.41.6.6,0,0,1-.42.16H274.4l.13-.25v3.78l-.14-.17h4a.59.59,0,0,1,.42.17.55.55,0,0,1,.17.41.53.53,0,0,1-.17.41.58.58,0,0,1-.42.16h-3.95l.1-.13v3.87l-.08-.11H279a.59.59,0,0,1,.42,1,.61.61,0,0,1-.42.17h-5.11a.52.52,0,0,1-.41-.18.64.64,0,0,1-.17-.44v-9.24a.61.61,0,0,1,.17-.43A.55.55,0,0,1,273.92,330.88Z"
                transform="translate(-188 -101.98)" />
            <path class="cls-4"
                d="M289,332.43,285.58,341a.52.52,0,0,1-.2.28.53.53,0,0,1-.3.11.49.49,0,0,1-.4-.15.52.52,0,0,1-.13-.36.47.47,0,0,1,0-.23l3.72-9.41a.52.52,0,0,1,.56-.38.56.56,0,0,1,.33.1.54.54,0,0,1,.21.28l3.71,9.32a.67.67,0,0,1,0,.24.58.58,0,0,1-.17.43.59.59,0,0,1-.39.16.51.51,0,0,1-.31-.11.62.62,0,0,1-.22-.3l-3.42-8.54Zm-2.66,6.11.49-1.16h4.26l.22,1.16Z"
                transform="translate(-188 -101.98)" />
            <path class="cls-4"
                d="M302.17,330.88a.47.47,0,0,1,.39.16.53.53,0,0,1,.15.39v9.28a.58.58,0,0,1-.18.45.54.54,0,0,1-.41.18.58.58,0,0,1-.26-.06.38.38,0,0,1-.2-.14l-6.15-8.45.28-.18v8.27a.53.53,0,0,1-.15.4.53.53,0,0,1-.39.16.49.49,0,0,1-.37-.16.57.57,0,0,1-.15-.4v-9.3a.6.6,0,0,1,.17-.44.57.57,0,0,1,.39-.16.86.86,0,0,1,.27.05.49.49,0,0,1,.21.16l6.06,8.33-.19.24v-8.23a.53.53,0,0,1,.15-.39A.49.49,0,0,1,302.17,330.88Z"
                transform="translate(-188 -101.98)" />
            <path class="cls-4"
                d="M309.39,330.88a4,4,0,0,1,1.84.41,3.85,3.85,0,0,1,1.33,1.14,5.22,5.22,0,0,1,.8,1.68,7.31,7.31,0,0,1,.26,2,6.94,6.94,0,0,1-.47,2.62,4.46,4.46,0,0,1-1.41,1.9,3.8,3.8,0,0,1-2.35.71h-3.6a.54.54,0,0,1-.41-.18.63.63,0,0,1-.16-.44v-9.24a.6.6,0,0,1,.16-.43.57.57,0,0,1,.41-.17Zm-.15,9.29a2.78,2.78,0,0,0,1.8-.55,3.09,3.09,0,0,0,1-1.48,6,6,0,0,0,.33-2,6.52,6.52,0,0,0-.18-1.55,4.18,4.18,0,0,0-.56-1.31,2.76,2.76,0,0,0-2.41-1.22H306.3l.11-.12v8.41l-.08-.15Z"
                transform="translate(-188 -101.98)" />
            <path class="cls-4"
                d="M323,332.43,319.59,341a.54.54,0,0,1-.21.28.48.48,0,0,1-.3.11.51.51,0,0,1-.4-.15.52.52,0,0,1-.13-.36.47.47,0,0,1,0-.23l3.72-9.41a.54.54,0,0,1,.22-.3.51.51,0,0,1,.34-.08.57.57,0,0,1,.34.1.54.54,0,0,1,.21.28l3.7,9.32a.69.69,0,0,1,.05.24.55.55,0,0,1-.18.43.57.57,0,0,1-.38.16.54.54,0,0,1-.32-.11.61.61,0,0,1-.21-.3l-3.42-8.54Zm-2.66,6.11.49-1.16h4.27l.22,1.16Z"
                transform="translate(-188 -101.98)" />
            <path class="cls-4"
                d="M329.31,330.88h5.12a.6.6,0,0,1,.41.16.54.54,0,0,1,.18.42.51.51,0,0,1-.18.41.56.56,0,0,1-.41.16H329.8l.13-.25v3.78l-.14-.17h4a.61.61,0,0,1,.42.17.55.55,0,0,1,.17.41.53.53,0,0,1-.17.41.6.6,0,0,1-.42.16h-3.95l.1-.13v3.87l-.09-.11h4.59a.54.54,0,0,1,.41.18.56.56,0,0,1,0,.82.57.57,0,0,1-.41.17h-5.12a.54.54,0,0,1-.41-.18.63.63,0,0,1-.16-.44v-9.24a.6.6,0,0,1,.16-.43A.57.57,0,0,1,329.31,330.88Z"
                transform="translate(-188 -101.98)" />
            <path class="cls-4"
                d="M337.59,341.34a.66.66,0,0,1-.47-.18.58.58,0,0,1-.19-.44v-9.24a.6.6,0,0,1,.16-.43.57.57,0,0,1,.41-.17h4a2.85,2.85,0,0,1,1.45.38,2.78,2.78,0,0,1,1,1.05,3,3,0,0,1,.38,1.53,2.84,2.84,0,0,1-.23,1.17,2.78,2.78,0,0,1-.63.94,2.84,2.84,0,0,1-.92.61l-.31-.24a2.34,2.34,0,0,1,.87.42,2.58,2.58,0,0,1,.64.78,2.51,2.51,0,0,1,.25,1.1c0,.37.05.66.08.88a1.44,1.44,0,0,0,.13.51.6.6,0,0,0,.24.3.63.63,0,0,1,.27.35.54.54,0,0,1-.08.44.42.42,0,0,1-.25.18.67.67,0,0,1-.31,0,.62.62,0,0,1-.28-.09,1.74,1.74,0,0,1-.44-.39,2,2,0,0,1-.36-.76,4.8,4.8,0,0,1-.15-1.34,1.8,1.8,0,0,0-.14-.79,1.25,1.25,0,0,0-.39-.51,1.38,1.38,0,0,0-.54-.27,2.57,2.57,0,0,0-.62-.08H338l.17-.26v3.89a.67.67,0,0,1-.15.44A.45.45,0,0,1,337.59,341.34ZM338,336h3.52a1.52,1.52,0,0,0,.78-.3,2.07,2.07,0,0,0,.6-.75,2.47,2.47,0,0,0,.24-1.1,1.88,1.88,0,0,0-.48-1.32,1.62,1.62,0,0,0-1.22-.52H338l.12-.28v4.54Z"
                transform="translate(-188 -101.98)" />
            <path class="cls-4"
                d="M355.56,336.11a6.15,6.15,0,0,1-.36,2.13,5.23,5.23,0,0,1-1,1.71,4.66,4.66,0,0,1-6.95,0,5.39,5.39,0,0,1-1-1.71,6.15,6.15,0,0,1-.36-2.13,6.22,6.22,0,0,1,.36-2.15,5.34,5.34,0,0,1,1-1.7,4.62,4.62,0,0,1,1.53-1.13,4.93,4.93,0,0,1,3.89,0,4.62,4.62,0,0,1,1.53,1.13,5.18,5.18,0,0,1,1,1.7A6.22,6.22,0,0,1,355.56,336.11Zm-1.24,0a4.84,4.84,0,0,0-.46-2.17,3.83,3.83,0,0,0-1.27-1.48,3.58,3.58,0,0,0-3.75,0,3.75,3.75,0,0,0-1.27,1.48,5.32,5.32,0,0,0,0,4.33,3.68,3.68,0,0,0,1.27,1.48,3.53,3.53,0,0,0,3.75,0,3.76,3.76,0,0,0,1.27-1.48A4.86,4.86,0,0,0,354.32,336.11Z"
                transform="translate(-188 -101.98)" />
            <path class="cls-4"
                d="M364.91,330.88a.48.48,0,0,1,.39.16.52.52,0,0,1,.14.39v9.28a.57.57,0,0,1-.17.45.54.54,0,0,1-.42.18.57.57,0,0,1-.25-.06.38.38,0,0,1-.2-.14l-6.15-8.45.28-.18v8.27a.57.57,0,0,1-.15.4.53.53,0,0,1-.39.16.51.51,0,0,1-.38-.16.61.61,0,0,1-.14-.4v-9.3a.6.6,0,0,1,.17-.44.57.57,0,0,1,.39-.16.86.86,0,0,1,.27.05.41.41,0,0,1,.2.16l6.07,8.33-.19.24v-8.23a.53.53,0,0,1,.15-.39A.49.49,0,0,1,364.91,330.88Z"
                transform="translate(-188 -101.98)" />
            <path class="cls-4"
                d="M371.43,332.43,368.06,341a.58.58,0,0,1-.2.28.53.53,0,0,1-.3.11.51.51,0,0,1-.41-.15.57.57,0,0,1-.13-.36.47.47,0,0,1,0-.23l3.72-9.41a.55.55,0,0,1,.23-.3.48.48,0,0,1,.33-.08.57.57,0,0,1,.34.1.54.54,0,0,1,.21.28l3.71,9.32a.67.67,0,0,1,0,.24.58.58,0,0,1-.17.43.61.61,0,0,1-.39.16.54.54,0,0,1-.32-.11.68.68,0,0,1-.21-.3l-3.42-8.54Zm-2.65,6.11.49-1.16h4.26l.22,1.16Z"
                transform="translate(-188 -101.98)" />
            <path class="cls-4"
                d="M384.19,330.87a.5.5,0,0,1,.4.17.63.63,0,0,1,.16.44v5.93a4.17,4.17,0,0,1-.51,2.06,3.87,3.87,0,0,1-1.37,1.44,3.68,3.68,0,0,1-1.95.53,3.76,3.76,0,0,1-2-.53,3.72,3.72,0,0,1-1.37-1.44,4.16,4.16,0,0,1-.5-2.06v-5.93a.63.63,0,0,1,.16-.44.57.57,0,0,1,.44-.17.56.56,0,0,1,.41.17.6.6,0,0,1,.18.44v5.93a2.93,2.93,0,0,0,.36,1.46,2.62,2.62,0,0,0,1,1,2.56,2.56,0,0,0,1.33.37,2.69,2.69,0,0,0,1.35-.37,2.82,2.82,0,0,0,1.38-2.47v-5.93a.66.66,0,0,1,.14-.44A.48.48,0,0,1,384.19,330.87Z"
                transform="translate(-188 -101.98)" />
            <path class="cls-4"
                d="M387.05,332a.6.6,0,0,1-.41-.16.54.54,0,0,1-.16-.41.53.53,0,0,1,.16-.41.56.56,0,0,1,.41-.16h6.68a.6.6,0,0,1,.42.16.53.53,0,0,1,.17.41.54.54,0,0,1-.17.42.64.64,0,0,1-.42.15Zm3.33,9.32a.58.58,0,0,1-.43-.18.64.64,0,0,1-.17-.44v-9.23H391v9.23a.64.64,0,0,1-.17.44A.6.6,0,0,1,390.38,341.34Z"
                transform="translate(-188 -101.98)" />
            <path class="cls-4"
                d="M397.24,340.72a.6.6,0,0,1-.18.44.58.58,0,0,1-.43.18.55.55,0,0,1-.43-.18.68.68,0,0,1-.16-.44v-9.23a.59.59,0,0,1,.18-.44.6.6,0,0,1,.43-.17.57.57,0,0,1,.41.17.59.59,0,0,1,.18.44Z"
                transform="translate(-188 -101.98)" />
            <path class="cls-4"
                d="M407,331.57a.53.53,0,0,1,.28.4.63.63,0,0,1-.14.49.44.44,0,0,1-.33.21.73.73,0,0,1-.4-.09,4.72,4.72,0,0,0-1-.47,4,4,0,0,0-1.15-.17,3.73,3.73,0,0,0-1.55.31,3.51,3.51,0,0,0-1.22.86,3.72,3.72,0,0,0-.81,1.31,4.79,4.79,0,0,0-.29,1.69,4.85,4.85,0,0,0,.3,1.76,4,4,0,0,0,.83,1.32,3.48,3.48,0,0,0,1.22.83,4,4,0,0,0,1.52.29,3.86,3.86,0,0,0,1.13-.17,4.09,4.09,0,0,0,1-.48.64.64,0,0,1,.4-.07.52.52,0,0,1,.34.21.62.62,0,0,1,.13.5.49.49,0,0,1-.27.38,5.69,5.69,0,0,1-.82.41,6.14,6.14,0,0,1-.95.29,4.86,4.86,0,0,1-1,.11,5.18,5.18,0,0,1-2-.38,5,5,0,0,1-1.62-1.07,5.11,5.11,0,0,1-1.11-1.7,6.17,6.17,0,0,1,0-4.37,5.15,5.15,0,0,1,1.08-1.69,5.22,5.22,0,0,1,1.62-1.12,5.22,5.22,0,0,1,3.47-.19A5,5,0,0,1,407,331.57Z"
                transform="translate(-188 -101.98)" />
            <path class="cls-4"
                d="M412,341.49a4.92,4.92,0,0,1-1.87-.33,5.07,5.07,0,0,1-1.55-1.05,1.19,1.19,0,0,1-.16-.23.55.55,0,0,1-.07-.28.61.61,0,0,1,.17-.42.52.52,0,0,1,.41-.19.51.51,0,0,1,.36.17,4.27,4.27,0,0,0,1.21.86,3.51,3.51,0,0,0,1.47.3,3,3,0,0,0,1.15-.21,2,2,0,0,0,.81-.58,1.35,1.35,0,0,0,.3-.87,1.51,1.51,0,0,0-.34-1A2.37,2.37,0,0,0,413,337a6.93,6.93,0,0,0-1.31-.44,7.93,7.93,0,0,1-1.22-.41,3.47,3.47,0,0,1-.95-.59,2.33,2.33,0,0,1-.63-.85,2.81,2.81,0,0,1-.22-1.17,2.56,2.56,0,0,1,.43-1.49,2.92,2.92,0,0,1,1.19-1,4.22,4.22,0,0,1,1.76-.35,4.65,4.65,0,0,1,1.66.3,3.13,3.13,0,0,1,1.25.82.81.81,0,0,1,.29.55.57.57,0,0,1-.18.41.54.54,0,0,1-.41.19.42.42,0,0,1-.29-.12,2.58,2.58,0,0,0-.61-.51,3.75,3.75,0,0,0-.82-.35,3.11,3.11,0,0,0-.89-.14,3.26,3.26,0,0,0-1.17.2,1.93,1.93,0,0,0-.78.57,1.37,1.37,0,0,0-.28.87,1.4,1.4,0,0,0,.31.94,2.43,2.43,0,0,0,.85.59,8.55,8.55,0,0,0,1.18.42,9,9,0,0,1,1.3.41,3.77,3.77,0,0,1,1,.57,2.27,2.27,0,0,1,.67.88,3.32,3.32,0,0,1,.23,1.3,2.57,2.57,0,0,1-.44,1.47,3,3,0,0,1-1.22,1A4,4,0,0,1,412,341.49Z"
                transform="translate(-188 -101.98)" />
            <path class="cls-4"
                d="M424.71,332.43,421.33,341a.58.58,0,0,1-.2.28.53.53,0,0,1-.3.11.51.51,0,0,1-.41-.15.57.57,0,0,1-.13-.36.63.63,0,0,1,0-.23l3.72-9.41a.55.55,0,0,1,.23-.3.5.5,0,0,1,.34-.08.56.56,0,0,1,.33.1.54.54,0,0,1,.21.28l3.71,9.32a.67.67,0,0,1,0,.24.58.58,0,0,1-.17.43.61.61,0,0,1-.39.16.56.56,0,0,1-.32-.11.68.68,0,0,1-.21-.3l-3.42-8.54Zm-2.66,6.11.49-1.16h4.26l.22,1.16Z"
                transform="translate(-188 -101.98)" />
            <path class="cls-4"
                d="M437.65,331.57a.51.51,0,0,1,.28.4.63.63,0,0,1-.14.49.41.41,0,0,1-.33.21.73.73,0,0,1-.4-.09,4.72,4.72,0,0,0-1-.47,4,4,0,0,0-1.15-.17,3.77,3.77,0,0,0-1.55.31,3.51,3.51,0,0,0-1.22.86,3.72,3.72,0,0,0-.81,1.31,4.79,4.79,0,0,0-.28,1.69,4.85,4.85,0,0,0,.3,1.76,3.84,3.84,0,0,0,.82,1.32,3.43,3.43,0,0,0,1.23.83,3.94,3.94,0,0,0,1.51.29,4,4,0,0,0,1.14-.17,4.19,4.19,0,0,0,1-.48.64.64,0,0,1,.4-.07.54.54,0,0,1,.35.21.66.66,0,0,1,.13.5.5.5,0,0,1-.28.38,5.69,5.69,0,0,1-.82.41,5.82,5.82,0,0,1-.95.29,4.79,4.79,0,0,1-1,.11,5.1,5.1,0,0,1-1.95-.38,5,5,0,0,1-1.63-1.07,5.11,5.11,0,0,1-1.11-1.7,5.87,5.87,0,0,1-.41-2.23,5.7,5.7,0,0,1,.39-2.14,5,5,0,0,1,2.71-2.81,5.19,5.19,0,0,1,3.46-.19A4.82,4.82,0,0,1,437.65,331.57Z"
                transform="translate(-188 -101.98)" />
            <path class="cls-4"
                d="M439.46,332a.6.6,0,0,1-.41-.16.55.55,0,0,1-.17-.41.53.53,0,0,1,.17-.41.56.56,0,0,1,.41-.16h6.68a.6.6,0,0,1,.42.16.53.53,0,0,1,.17.41.54.54,0,0,1-.17.42.64.64,0,0,1-.42.15Zm3.33,9.32a.58.58,0,0,1-.43-.18.64.64,0,0,1-.17-.44v-9.23h1.22v9.23a.64.64,0,0,1-.17.44A.61.61,0,0,1,442.79,341.34Z"
                transform="translate(-188 -101.98)" />
            <path class="cls-4"
                d="M449.65,340.72a.6.6,0,0,1-.18.44.58.58,0,0,1-.43.18.55.55,0,0,1-.43-.18.68.68,0,0,1-.16-.44v-9.23a.59.59,0,0,1,.18-.44.58.58,0,0,1,.43-.17.57.57,0,0,1,.41.17.59.59,0,0,1,.18.44Z"
                transform="translate(-188 -101.98)" />
            <path class="cls-4"
                d="M459.47,330.87a.62.62,0,0,1,.42.15.55.55,0,0,1,.17.41.74.74,0,0,1-.06.27L456.25,341a.61.61,0,0,1-.23.29.5.5,0,0,1-.63,0,.52.52,0,0,1-.21-.27l-3.74-9.23a.65.65,0,0,1,0-.13.68.68,0,0,1,0-.14.53.53,0,0,1,.2-.44.57.57,0,0,1,.38-.16.59.59,0,0,1,.56.42l3.43,8.51h-.33l3.32-8.54A.56.56,0,0,1,459.47,330.87Z"
                transform="translate(-188 -101.98)" />
            <path class="cls-4"
                d="M463,340.72a.6.6,0,0,1-.18.44.58.58,0,0,1-.42.18.56.56,0,0,1-.44-.18.67.67,0,0,1-.15-.44v-9.23a.58.58,0,0,1,.17-.44.6.6,0,0,1,.43-.17.61.61,0,0,1,.42.17.62.62,0,0,1,.17.44Z"
                transform="translate(-188 -101.98)" />
            <path class="cls-4"
                d="M465.29,332a.6.6,0,0,1-.41-.16.54.54,0,0,1-.16-.41.53.53,0,0,1,.16-.41.56.56,0,0,1,.41-.16H472a.6.6,0,0,1,.42.16.53.53,0,0,1,.17.41.54.54,0,0,1-.17.42.64.64,0,0,1-.42.15Zm3.33,9.32a.58.58,0,0,1-.43-.18.64.64,0,0,1-.17-.44v-9.23h1.22v9.23a.64.64,0,0,1-.17.44A.6.6,0,0,1,468.62,341.34Z"
                transform="translate(-188 -101.98)" />
            <path class="cls-4"
                d="M480.55,330.82a.52.52,0,0,1,.41.19.6.6,0,0,1,.16.42.65.65,0,0,1,0,.19.52.52,0,0,1-.08.19l-3.33,4.82.19-.73v4.82a.64.64,0,0,1-.17.44.51.51,0,0,1-.39.18.55.55,0,0,1-.43-.18.63.63,0,0,1-.16-.44V336l.1.39-3.24-4.54a1.34,1.34,0,0,1-.12-.24.76.76,0,0,1,0-.21.53.53,0,0,1,.2-.43.64.64,0,0,1,.4-.17.56.56,0,0,1,.47.28l3,4.25-.28-.05,2.86-4.18A.57.57,0,0,1,480.55,330.82Z"
                transform="translate(-188 -101.98)" />
            <path class="cls-4"
                d="M493.84,331.57a.53.53,0,0,1,.28.4.67.67,0,0,1-.14.49.44.44,0,0,1-.33.21.71.71,0,0,1-.4-.09,4.72,4.72,0,0,0-1-.47,4,4,0,0,0-1.15-.17,3.73,3.73,0,0,0-1.55.31,3.65,3.65,0,0,0-1.23.86,3.85,3.85,0,0,0-.8,1.31,4.79,4.79,0,0,0-.29,1.69,4.85,4.85,0,0,0,.3,1.76,4,4,0,0,0,.83,1.32,3.48,3.48,0,0,0,1.22.83,4,4,0,0,0,1.52.29,3.86,3.86,0,0,0,1.13-.17,4.09,4.09,0,0,0,1-.48.63.63,0,0,1,.4-.07.52.52,0,0,1,.34.21.62.62,0,0,1,.13.5.51.51,0,0,1-.27.38,5.69,5.69,0,0,1-.82.41,6.14,6.14,0,0,1-.95.29,4.86,4.86,0,0,1-1,.11,5.18,5.18,0,0,1-2-.38A5,5,0,0,1,487.5,340a5.11,5.11,0,0,1-1.11-1.7,6.17,6.17,0,0,1,0-4.37,5.15,5.15,0,0,1,1.08-1.69,5.34,5.34,0,0,1,1.62-1.12,5.22,5.22,0,0,1,3.47-.19A5,5,0,0,1,493.84,331.57Z"
                transform="translate(-188 -101.98)" />
            <path class="cls-4"
                d="M496.44,330.88h5.11a.65.65,0,0,1,.42.16.57.57,0,0,1,.17.42.53.53,0,0,1-.17.41.6.6,0,0,1-.42.16h-4.63l.13-.25v3.78l-.14-.17h4a.57.57,0,0,1,.42.17.52.52,0,0,1,.17.41.5.5,0,0,1-.17.41.57.57,0,0,1-.42.16H497l.1-.13v3.87l-.08-.11h4.58a.59.59,0,0,1,.42,1,.61.61,0,0,1-.42.17h-5.11a.52.52,0,0,1-.41-.18.64.64,0,0,1-.17-.44v-9.24a.61.61,0,0,1,.17-.43A.55.55,0,0,1,496.44,330.88Z"
                transform="translate(-188 -101.98)" />
            <path class="cls-4"
                d="M511.49,330.88a.47.47,0,0,1,.39.16.52.52,0,0,1,.14.39v9.28a.57.57,0,0,1-.17.45.54.54,0,0,1-.41.18.58.58,0,0,1-.26-.06.38.38,0,0,1-.2-.14l-6.15-8.45.28-.18v8.27a.57.57,0,0,1-.15.4.53.53,0,0,1-.39.16.49.49,0,0,1-.37-.16.57.57,0,0,1-.15-.4v-9.3a.6.6,0,0,1,.17-.44.57.57,0,0,1,.39-.16.86.86,0,0,1,.27.05.49.49,0,0,1,.21.16l6.06,8.33-.19.24v-8.23a.53.53,0,0,1,.15-.39A.49.49,0,0,1,511.49,330.88Z"
                transform="translate(-188 -101.98)" />
            <path class="cls-4"
                d="M514.32,332a.6.6,0,0,1-.41-.16.54.54,0,0,1-.16-.41.53.53,0,0,1,.16-.41.56.56,0,0,1,.41-.16H521a.57.57,0,0,1,.42.16.5.5,0,0,1,.17.41.51.51,0,0,1-.17.42.6.6,0,0,1-.42.15Zm3.34,9.32a.55.55,0,0,1-.43-.18.6.6,0,0,1-.18-.44v-9.23h1.22v9.23a.6.6,0,0,1-.17.44A.57.57,0,0,1,517.66,341.34Z"
                transform="translate(-188 -101.98)" />
            <path class="cls-4"
                d="M524,341.34a.66.66,0,0,1-.47-.18.58.58,0,0,1-.19-.44v-9.24a.6.6,0,0,1,.16-.43.57.57,0,0,1,.41-.17h4a2.85,2.85,0,0,1,1.45.38,2.78,2.78,0,0,1,1,1.05,3,3,0,0,1,.38,1.53,3,3,0,0,1-.22,1.17,3,3,0,0,1-.64.94,2.84,2.84,0,0,1-.92.61l-.31-.24a2.27,2.27,0,0,1,.87.42,2.58,2.58,0,0,1,.64.78,2.38,2.38,0,0,1,.25,1.1c0,.37,0,.66.08.88a1.7,1.7,0,0,0,.13.51.6.6,0,0,0,.24.3.63.63,0,0,1,.27.35.54.54,0,0,1-.08.44.42.42,0,0,1-.25.18.67.67,0,0,1-.31,0,.62.62,0,0,1-.28-.09,1.74,1.74,0,0,1-.44-.39,2,2,0,0,1-.36-.76,4.86,4.86,0,0,1-.14-1.34,1.79,1.79,0,0,0-.15-.79,1.25,1.25,0,0,0-.39-.51,1.38,1.38,0,0,0-.54-.27,2.57,2.57,0,0,0-.62-.08h-3.2l.17-.26v3.89a.72.72,0,0,1-.14.44A.48.48,0,0,1,524,341.34Zm.36-5.32h3.52a1.52,1.52,0,0,0,.78-.3,2.07,2.07,0,0,0,.6-.75,2.47,2.47,0,0,0,.24-1.1,1.88,1.88,0,0,0-.48-1.32,1.62,1.62,0,0,0-1.22-.52h-3.39l.12-.28v4.54Z"
                transform="translate(-188 -101.98)" />
            <path class="cls-4"
                d="M533.6,330.88h5.12a.6.6,0,0,1,.41.16.54.54,0,0,1,.18.42.51.51,0,0,1-.18.41.56.56,0,0,1-.41.16h-4.63l.13-.25v3.78l-.14-.17h4a.61.61,0,0,1,.42.17.55.55,0,0,1,.17.41.53.53,0,0,1-.17.41.6.6,0,0,1-.42.16h-4l.1-.13v3.87l-.09-.11h4.59a.54.54,0,0,1,.41.18.56.56,0,0,1,0,.82.57.57,0,0,1-.41.17H533.6a.54.54,0,0,1-.41-.18.63.63,0,0,1-.16-.44v-9.24a.6.6,0,0,1,.16-.43A.57.57,0,0,1,533.6,330.88Z"
                transform="translate(-188 -101.98)" />
        </g>
        <g id="Name">
            <path id="C" class="cls-4"
                d="M499.5,293.48l5.65-8.88H479.54a20.53,20.53,0,0,0-10.42,2.72c-3.93,2.32-8,6.56-8.37,14.23-.43,8.1,4.09,12.59,8.46,15a22.25,22.25,0,0,0,10.84,2.72H499.5l5.65-8.88H479.72a9.35,9.35,0,0,1-8-4.22,8.68,8.68,0,0,1-1.32-4.66,7.26,7.26,0,0,1,3.53-6.14,11.93,11.93,0,0,1,6.65-1.93Z"
                transform="translate(-188 -101.98)" />
            <circle id="_." data-name="." class="cls-4" cx="109.66" cy="211.68" r="5.25" />
            <path id="A" class="cls-4"
                d="M324.07,318.91h41.81l-24.79-35a5.56,5.56,0,0,0-4.54-2.35h-.67a5.56,5.56,0,0,0-4.51,2.31l-24.43,35h12.92l15.57-23.54a1.22,1.22,0,0,1,2,0l9.25,13.89H330.47Z"
                transform="translate(-188 -101.98)" />
            <circle id="_.-2" data-name="." class="cls-4" cx="185.55" cy="211.68" r="5.25" />
            <path id="A-2" data-name="A" class="cls-4"
                d="M400,318.91h41.8l-24.79-35a5.56,5.56,0,0,0-4.53-2.35h-.68a5.53,5.53,0,0,0-4.5,2.31l-24.43,35h12.91l15.58-23.54a1.21,1.21,0,0,1,2,0l9.26,13.89H406.37Z"
                transform="translate(-188 -101.98)" />
            <circle id="_.-3" data-name="." class="cls-4" cx="263.06" cy="211.68" r="5.25" />
            <path id="S" class="cls-4"
                d="M279.49,293.07l6.46-8.88H253a14.85,14.85,0,0,0-6.23,1.3c-3.1,1.45-6.53,4.41-5.61,10.41,1.62,10.49,11.3,8.88,11.3,8.88h21.78a3.44,3.44,0,0,1,3.27,2.2,2.41,2.41,0,0,1-.36,2.38,3,3,0,0,1-2.35,1.07h-28l-6.46,8.88h37.14A10.69,10.69,0,0,0,288,308.82c.81-10.5-9.69-10.5-9.69-10.5H254.06a3.66,3.66,0,0,1-2.59-.95,1.94,1.94,0,0,1-.76-2c.12-1.05,1.73-1.85,4.16-1.87Z"
                transform="translate(-188 -101.98)" />
        </g>
    </g>
</svg>