<svg xmlns="http://www.w3.org/2000/svg" viewBox="0 0 2530.96 3247.33"><style>.P{fill:#371a45}.Q{fill:#fff}.R{opacity:.35}</style><path d="M2015.12 2094.89a847.17 847.17 0 0130.05 100.67c-144.7 100.55-425.93 235.55-759 357.85s-634.86 201.36-810.24 218.34a845 845 0 01-42.23-96.2l-1.69-4.69q-8-22.07-14.62-44.27a842.5 842.5 0 01-24.27-104.4l-.69-4.25a838.78 838.78 0 0146.86-437.9c84.6-217.4 258.57-398.81 494.8-485.54 234.29-86 482.18-61.43 686.39 47.3a842.15 842.15 0 01225.46 174.6 833.59 833.59 0 0194.22 124.46l6.65 10.88a839.33 839.33 0 0149.05 95.3q8.09 18.45 15.33 37.46l3.93 10.39zm40.47 427.58a846.55 846.55 0 01-75.58 234.93c-92.22 187.32-253.82 340.85-465.3 418.5-211.93 77.82-435 65.12-626.83-18.48a848 848 0 01-208.41-129.7c209.84-36.78 454.09-103 708.7-196.47s483.68-201.04 667.42-308.78z" fill="#ffb200"/><path d="M1388.17 2831.26c254.58-93.47 483.63-201.05 667.42-308.79a836.07 836.07 0 01-23.1 100.51c-141.81 88-365.78 193.09-624.6 288.12-247.91 91-477.42 154.32-641.37 181.17a843.94 843.94 0 01-87.05-64.54c209.84-36.78 454.09-102.99 708.7-196.47zm623.02-746.79l3.93 10.42a847.17 847.17 0 0130.05 100.67c-144.7 100.55-425.93 235.55-759 357.85s-634.86 201.36-810.24 218.34a845 845 0 01-42.23-96.2l-1.69-4.69c165.58-6.16 472.42-81.56 812-206.23 352.9-129.6 644.5-276.92 767.18-380.16zM378.6 2391.05l7-56.34c114 14.29 420.48-59 745.17-178.21 387.35-142.23 641.41-287.18 692.17-356.84l45.9 33.44c-67.17 92.18-355.91 243.57-718.49 376.7-337.5 123.95-647.71 196.8-771.75 181.25zm62.79-282.65l-4.24-56.63c130.17-9.72 359-70.11 597.33-157.6 249.67-91.67 467.57-197 568.66-274.81l34.64 45c-105.34 81.11-329 189.6-583.72 283.12-242.88 89.11-477.64 150.78-612.67 160.92zm-51.19 437.85l4.42-56.62c131.35 10.23 448.07-66.79 788.14-191.65 356.71-131 659.27-285.4 735.76-375.53l43.3 36.74c-83.51 98.38-388.72 255.95-759.48 392.09-352.49 129.41-671.23 205.94-812.14 194.97zm497.65 625.37v-14.15l-5.68-13.05 2.71-1.18h3c114.22.11 336-54.13 564.91-138.19 230.21-84.53 428.72-183.58 518.08-258.51l18.24 21.76c-91.7 76.89-293.45 177.81-526.53 263.4-235.38 86.42-455.6 140.04-574.73 139.92z" fill="#d66b09"/><path d="M1225.11 3247.33c-201.4 0-400.31-70.36-558.56-204.33l-32.59-27.6 42.06-7.38c216.19-37.9 460.06-105.52 705.25-195.54s474.87-196.28 664.2-307.28l36.84-21.59-7 42.12c-50.75 305.85-262.92 562.18-553.71 668.95a860.08 860.08 0 01-296.49 52.65zm-499-207.79c222.43 169 518 214.43 781.69 117.6s459.65-322.7 519.84-595.48c-183.71 104.2-401.39 203.48-632.6 288.37s-461.41 150.08-668.91 189.51z" class="P"/><path d="M2504.85 2042.2c42.53 115.83-138.87 298.3-449.28 480.27-183.79 107.74-412.84 215.32-667.42 308.79s-498.86 159.69-708.7 196.47c-354.41 62.14-610.75 40.4-653.28-75.44-38.63-105.2 107.38-265.28 366.91-430.1a842.5 842.5 0 0024.27 104.4c-72.12 50.69-108.86 92.4-99.1 119 9.95 27.08 66.87 34.93 157.64 26.16 175.38-17 477.18-96 810.24-218.34s614.32-257.3 759-357.85c74.85-52 113.17-94.85 103.22-121.94-9.75-26.56-64.76-34.62-152.53-26.61a839.33 839.33 0 00-49.05-95.3c304.57-42.31 519.48-14.71 558.08 90.49z" fill="#ffc536"/><g fill="#ff9100"><path d="M394.11 2570.06l6.45 9.52c-64.63 42.59-115 81.26-153.26 115.74 29.4-37.01 78.24-78.59 146.81-125.26zM407.03 2589.03l-6.47-9.45c1.09-.8 2.35-1.57 3.6-2.34z"/></g><g fill="#ffec90"><path d="M2258.19 2047.04c-10.7-29-39.59-48.2-87.59-57.76-46.43-9.19-110.74-9.31-193.58-.44l1.23 11.4 3.65 34.36c158.07-16.92 224 3.51 233.17 28.32 15.21 41.47-95.08 152.65-373.35 298.54-155.55 81.53-342.17 163-539.58 235.51-116.15 42.64-231.5 80.53-341.65 112.18-77.07 22.33-151.6 41.58-222.11 57.42-306.55 68.88-462.57 55.51-477.83 13.94-8.94-24.26 26.73-81 152.71-168 2.17-1.53 4.43-3 6.69-4.57l-12.93-19-6.46-9.45-6.45-9.51c-68.57 46.66-117.41 88.24-146.81 125.25-30.82 38.48-40.53 71.95-29.87 101.07 10.44 28.33 38.74 45.94 79.06 55.56 105.17 25.09 291.77-4.52 451.92-40.53 72.51-16.27 149.16-36.16 228.45-59.12 110.11-31.82 225.2-69.69 341.08-112.23 199.29-73.16 387.77-155.47 545.16-237.88 200.99-105.33 432.75-252.53 395.09-355.06z"/><path d="M2398.3 2036.04c-39.45-107.41-260.43-102.7-438.77-79.76l5.83 45.58 12.89-1.62c77.12-9.41 140.72-12.5 192.35-11 117.39 3.57 172.95 31.06 184.59 62.63 20.88 57-73.7 189.93-409.34 376.93-173.47 96.68-382.74 191-605.3 272.66-101.8 37.34-203.19 70.91-301.78 100-117.21 34.65-230.51 62.91-336.21 83.85-376.87 74.64-535 34.53-555.95-22.47-11.62-31.65 13.1-88.7 100.69-167.52 38.26-34.48 88.63-73.15 153.26-115.74 1.1-.8 2.35-1.57 3.6-2.35l7.23-4.77-12.46-19.18-12.57-19.38c-150.82 98-322.38 237.31-282.85 344.74 15.26 41.57 57.09 66.61 113.92 80.17 133.76 31.83 350.08.09 494-28.42 126.34-25 263.3-60.36 404.51-104.25 79.17-24.56 159.63-51.77 240.35-81.46 224.82-82.54 436.39-177.86 611.87-275.7 182.69-101.81 481.42-293.34 430.14-432.94z"/></g><path d="M338.78 3081.92c-185.21 0-301.61-41.68-331.37-122.73-41.42-112.82 91.74-274 375-453.88l25.5-16.2 5 29.8a823.25 823.25 0 0023.7 101.92l4.15 13.82-11.81 8.3c-99.77 70.13-91.91 95.5-91.82 95.74s10.81 25.34 136.93 13.15c179-17.34 487.61-100.57 805.28-217.2s606.79-252.86 754.5-355.5c104-72.32 96-98.37 95.86-98.62s-10.52-24.67-131.94-13.59l-14.37 1.32-5.78-13.23a823.37 823.37 0 00-47.88-93l-15.51-25.92 29.92-4.16c332.34-46.15 538.16-9.42 579.59 103.4 45.3 123.4-121.61 307.25-458 504.42-191.35 112.18-423.26 219.48-670.64 310.31s-493.64 159.1-712.13 197.4c-131.82 23.07-247.4 34.45-344.18 34.45zm40.07-526.77C137.22 2712.8 12.78 2857.77 44.96 2945.4c36.87 100.41 278.68 124.41 631.06 62.63 216.19-37.9 460.06-105.52 705.25-195.54s474.87-196.28 664.2-307.28c308.66-180.93 477.5-355.71 440.63-456.12-32.18-87.63-220.87-117.63-507.09-81.47 10.5 19 20.31 38.54 29.33 58.29 95.42-7.15 146 5.93 158.82 40.82 13.65 37.16-21.49 83.31-110.57 145.26-152.6 106-438 240.68-763.54 360.2s-630.26 201.56-815.2 219.47c-108 10.42-164.69-2-178.33-39.18-12.81-34.9 17.32-77.62 94.7-133.91a857.17 857.17 0 01-15.37-63.42z" class="P"/><path d="M2045.17 2198.45q-25.26 17.55-55.92 36.42a852.644 852.644 0 00-21.68-67.73l-3.93-10.39q-7.22-19-15.32-37.48a847.8 847.8 0 00-49-95.32l-6.66-10.85a830.9 830.9 0 00-94.25-124.48 841.45 841.45 0 00-225.45-174.54c-204.24-108.74-452.14-133.37-686.42-47.32-156.4 57.43-285.53 156.38-379.49 279.83A838.81 838.81 0 01934.1 1597.4c234.27-86 482.18-61.41 686.36 47.32a841.9 841.9 0 01225.5 174.6 833 833 0 0194.21 124.42c2.29 3.61 4.47 7.26 6.64 10.9a836.48 836.48 0 0149.05 95.27q8.1 18.49 15.32 37.48c1.37 3.46 2.68 6.9 3.93 10.44a847.68 847.68 0 0130.06 100.62z" opacity=".41" class="Q"/><g class="P"><path d="M464.34 2792.96l-6.21-12a870.15 870.15 0 01-43.23-98.48 865.282 865.282 0 01-16.69-50.12 864.22 864.22 0 01-24.84-106.85c-67.62-407.67 165.29-807.09 553.81-949.74s824.55 11.15 1036.79 365.71a863.82 863.82 0 0150.22 97.57c7 15.94 13.62 32.43 19.7 49a869.33 869.33 0 0130.77 103.05l3.06 13.21-11.13 7.73c-152.6 106-438 240.68-763.54 360.2s-630.26 201.51-815.2 219.42zm759.81-1230.13a820.65 820.65 0 00-283.19 50.44c-370.5 136-592.61 516.92-528.13 905.64a823.25 823.25 0 0023.7 101.92c4.76 15.93 10.11 32 15.92 47.83a831.47 831.47 0 0035.09 81.77c180.8-20.08 481.94-102.05 791.72-215.79s592.42-246.12 743.25-347.8a831 831 0 00-26.17-85.05 819.194 819.194 0 00-18.79-46.74 824.69 824.69 0 00-47.9-93.07c-151.63-253.3-423.08-399.15-705.5-399.15z"/><path d="M1009.02 2647.68c-218.93 68.33-408.13 112-533.11 124.08-90.76 8.77-147.68.92-157.63-26.16-9.76-26.6 27-68.31 99.1-119-6-19.89-11.09-39.86-15.54-59.85-234.15 155.46-363.19 304.29-326.62 403.9 10.59 28.85 34.46 51.85 69.78 69.18-3.34-.95-6.59-2-9.81-3 114.74 36.38 307.57 32.35 544.28-9.15 209.84-36.78 454.09-103 708.7-196.47q29.61-10.87 58.68-22c-714.62 153.66-437.83-161.53-437.83-161.53zm20-116.11c252.59-3.36 780.12-224.61 998.31-323.93l17.84-12.08c-5.37-23.06 12.1-4.66 4.7-27.53-137.58 67-782.15 353.59-1069.89 357.41-12.58.16-25.15-.23-37.66-1.1a448.89 448.89 0 0086.7 7.23z" opacity=".3"/><path d="M2049.85 2168.03c-137.58 67-782.15 353.59-1069.89 357.41-151 2-301.65-70.4-333.32-218a206.07 206.07 0 01-1.34-6.89l-.7-4.29a832.37 832.37 0 01-10.28-155 845.1 845.1 0 01122.57-415.36c-243.187 188.378-364.153 494.478-315.44 798.21.18 1.41.42 2.82.65 4.23a846.27 846.27 0 0024.3 104.42q6.59 22.2 14.58 44.27l1.69 4.68a867.59 867.59 0 0036.65 84.93q-10.73 1.45-21 2.69c178-21.19 468.5-98.66 787.8-215.89 333.07-122.29 614.33-257.32 759-357.85-5.27-23.09 12.15-4.69 4.73-27.56zM760.39 3037.1a846.57 846.57 0 00121.36 65.16c191.81 83.6 414.9 96.3 626.83 18.49 211.48-77.65 373.08-231.18 465.3-418.51a842 842 0 0052.48-134.43c4.4-14.87 8.33-29.89 11.9-45-181.88 105.57-406.74 210.73-656.22 302.33-234.35 86.05-459.85 148.91-657.9 187.07 11.9 8.58 23.94 16.94 36.25 24.89z" opacity=".3"/></g><g class="Q"><rect width="799.99" height="749.54" x="1630.01" y="1160.76" rx="155.54" transform="rotate(180 1624.43 1366.73)"/><path d="M1618.85 976.13v443.62c0 84.11-71.15 153-158.16 153H977.01c-87 0-158.16-68.85-158.16-153V976.13a147.3 147.3 0 0116.42-67.65 154.5 154.5 0 0130.32-40.66 160.36 160.36 0 01103.43-44.42c2.66-.13 5.33-.2 8-.2h483.73c63.66 0 118.78 36.88 143.81 89.61a150.92 150.92 0 017.25 18.29 147.05 147.05 0 017.04 45.03z"/></g><path d="M1463.31 823.16c85.55 0 155.54 70 155.54 155.54v438.46c0 85.55-70 155.54-155.54 155.54H974.4c-85.55 0-155.55-70-155.55-155.54V978.7c0-85.55 70-155.54 155.55-155.54h488.91m0-32H974.4c-103.44 0-187.58 84.15-187.58 187.58v438.46c0 103.43 84.14 187.57 187.58 187.57h488.91c103.43 0 187.58-84.14 187.58-187.57V978.7c0-103.43-84.15-187.58-187.58-187.58z" class="P"/><path d="M1601.55 998.66l-2.07 1.07v-2.95a32.06 32.06 0 01.49-4c.06-.36.13-.69.22-1a3.1 3.1 0 01.08-.42l.32-1.18.28-1a4 4 0 01.16-.49l.38-1.09.5-1.28q-.15.69-.27 1.38l-.4 3a33.45 33.45 0 00.31 7.96z" fill="#6b184e" opacity=".3"/><path d="M999.37 850.78l-13.08 34.35-11.1 29.14-9.65 25.36-56.87 149.3c-9.21 2.56-18.63 4.88-28.31 6.81-121.5 25-282-1.41-501-247-34.26-38.4-116.93-61.68-80.89-149 36.86-89.32 88.73-78.17 88.73-78.17s-13.59-44.27 15.71-66.68c41.35-31.66 90.38 15.24 138 48.68 6.77 4.76 3.74-59.39 48.48-57.46 64 2.76 60.57 148.83 60.57 148.83s86.32 94.79 220.34 136.54a419.25 419.25 0 00110.63 19.1 403.2 403.2 0 0018.44.2z" class="Q"/><g class="P"><path d="M908.66 1088.92c-124.59 34.61-292.82 25-529.29-240.18-34.25-38.4-116.92-61.65-80.88-149 22.12-53.66 49.69-71 68.13-76.4-6.26 9.5-10.73 21.92-18.23 35.14-42.17 74.27 73.29 146.35 105.11 133.17 19.52-8.09 26.39-15.92 37.66-53.24 12-39.67 30.64-58.54 32.83-56.07 10 11.2 10.23 149.42 33.19 198 58.54 124 216.19 184.9 330.58 179.59a21.33 21.33 0 0120.9 28.99z" class="R"/><path d="M808.74 1119.14c-108.91 0-254.8-51-441.13-259.9-7.54-8.46-18.46-16.6-30-25.21-36-26.84-85.33-63.6-53.69-140.29 26.71-64.72 62.22-82.61 84.77-87-1.54-18.56 1-46.25 24.66-64.36 44.76-34.24 93.29 1.69 136.11 33.38l4 3c6-19.88 19.9-50 56.63-48.36 70.74 3 75.68 125.19 75.72 158.29 24.71 24.86 156.76 148.75 333.38 146.36h.21c8.698-.052 15.793 6.957 15.845 15.655s-6.957 15.793-15.655 15.845c-209.8 2.64-355.16-154.27-361.25-161a15.78 15.78 0 01-4.1-11c1-42.63-8.91-131.18-45.51-132.76-15.66-.65-21.79 11.85-27.58 35.19-2.41 9.7-4.49 18.08-13.69 21.52a16.89 16.89 0 01-15.58-2.06c-7-4.94-14.1-10.17-21.17-15.41-45-33.29-74-52.18-98.22-33.67-20.11 15.38-10.31 49.29-10.21 49.63a15.78 15.78 0 01-18.4 20c-1.29-.19-40.08-5.76-70.84 68.77-22.31 54.05 8.14 76.74 43.39 103 12.31 9.17 25 18.65 34.71 29.5 242.24 271.62 409 264.47 513.32 235.47 8.384-2.328 17.067 2.581 19.395 10.965s-2.581 17.067-10.965 19.395c-29.95 8.31-64.62 15.05-104.15 15.05z"/><path d="M560.13 600.14l-3.54 50a16.66 16.66 0 01-2.86 8.24l-.43.63a45.33 45.33 0 00-3.29 4.11l-3.35 5a95.46 95.46 0 00-5.76 10.69 78.73 78.73 0 00-6.59 23.12c-.66 4-.44 8-.49 12 .6 3.94.71 8.06 2 12 1.69 8 5.72 15.52 10 22.94l.41.71a7.85 7.85 0 01-12.92 8.86c-6.3-7.86-12.48-16.32-16.19-26.25-2.28-4.8-3.34-10-4.77-15.18-.78-5.26-1.73-10.59-1.67-15.94a104.14 104.14 0 014.27-31.59 123.8 123.8 0 015.48-14.94 106.7 106.7 0 013.49-7.24 80.34 80.34 0 014.47-7.55l-3.29 8.87 3.64-51.41c.68-8.624 8.188-15.085 16.816-14.473s15.149 8.069 14.604 16.703zm105.62 485.77a12.5 12.5 0 01-8.66-21.52c84.68-81.26 97.63-277.44 97.75-279.41.42-6.904 6.356-12.16 13.26-11.74s12.16 6.356 11.74 13.26c-.51 8.45-13.65 207.89-105.39 295.93a12.43 12.43 0 01-8.7 3.48z"/></g><path d="M1759.37 1496.62c-6.73 148.87-52.25 209.28-108.45 228.34a110.06 110.06 0 01-37.58 5.87c-39.77-1.38-68.64-18.16-68.64-18.16s-14.65 6.15-28.08 4.85c-103.93-10.09-80.22-71.76-59.11-170.57 6.06-28.43 11.93-59.94 14.45-94.16 12-161.67-33.2-314.51-33.2-314.51l17.41-145.05 19.38-161.66s10.16 9.21 26.66 26.74c14.45 15.32 33.75 36.94 55.29 64.31 87.9 111.45 213.53 317.5 201.87 574z" class="Q"/><g class="P"><path d="M1616.11 1746.63c-1.12 0-2.22 0-3.32-.06a180.92 180.92 0 01-69.27-16.81c-6.89 2.07-17.67 4.47-28.42 3.42-39.2-3.79-64.1-14.73-78.37-34.4-22.31-30.76-12.47-74.89 0-130.76 7.65-34.29 16.31-73.16 19.53-116.42 11.65-156.71-32.13-307.37-32.57-308.87-2.466-8.342 2.298-17.104 10.64-19.57s17.104 2.298 19.57 10.64c1.88 6.36 45.87 157.5 33.78 320.14-3.39 45.54-12.32 85.6-20.19 120.94-10.73 48.12-19.21 86.13-5.23 105.4 8.46 11.67 26.74 18.72 55.9 21.55 7.65.75 17.42-2.43 20.56-3.71l7.17-2.94 6.76 3.88c.22.12 26.26 14.82 61.25 16a93.6 93.6 0 0032-5c59.38-20.14 92.29-92.19 97.81-214.14 9-197.67-67-364.34-132.38-469.36-71.19-114.41-145.57-182.65-146.32-183.32-6.44-5.851-6.916-15.815-1.065-22.255s15.815-6.916 22.255-1.065c3.14 2.85 77.86 71.28 151.34 189.14 67.95 109 147 282.15 137.65 488.29-6.26 138.13-45.24 217.47-119.17 242.54a128.34 128.34 0 01-39.91 6.74z"/><path d="M1468.98 1314.73a12.51 12.51 0 01-4.27-24.26c8.56-3.1 210.25-75.19 283.55-9.28 5.133 4.617 5.552 12.522.935 17.655s-12.522 5.552-17.655.935c-51.62-46.42-204-5.49-258.3 14.2a12.51 12.51 0 01-4.26.75z"/></g><path d="M1583.26 1546.95H850.54c-1.93-59.43-1.45-116.65.79-171.35 2.09-50.65 5.75-99.13 10.55-145.17 4.38-42.1 9.73-82.15 15.72-120 .79-5 1.73-9.88 2.76-14.65 14.84-67.14 54.74-113.65 82.15-158.63 4.64-7.64 8.94-15.2 12.68-22.84a161.38 161.38 0 0010.51-26.78 23.25 23.25 0 00.59-2.36c1.9-9.81-.86-21.9-5.35-34.54-9.85-27.77-28-58.29-22.88-73.37 8.43-24.85 15.75-44.39 21.19-58.17 6.18-15.75 9.88-24 9.88-24h455.54s3.78 8.12 10.12 23.75c6.58 16.19 15.87 40.41 26.5 72.19 6.58 19.61 13.67 42.1 20.92 67.31a1914.38 1914.38 0 0116.14 59.58l7.6 31.27c11.9 50.18 23.28 107 32.81 170.13 5.4 35.37 10.16 72.63 14.06 111.77 4.69 46.24 8.15 95 10.08 146.15 2.05 53.97 2.33 110.68.36 169.71z" class="Q"/><g class="P"><path d="M911.19 983.4c.64 12.36-.07 24.29-.67 36.2s-1.75 23.65-2.81 35.4-2.82 23.31-4.41 34.93c-1.82 11.58-4.21 23.06-6.26 34.62l-3.13 17.33c-.94 5.8-1.72 11.62-2.53 17.44l-4.4 35-3.83 35.08-3.32 35.15c-4.29 46.91-5.54 94.08-7.26 141.22l-3.83 70.7c-1.33 23.59-2.69 47.15-15.76 70.59a2.73 2.73 0 01-3.71 1.06 2.7 2.7 0 01-1.12-1.15c-12.11-23.93-12.41-47.73-12.3-71.49-.27-23.78.36-47.54 1.49-71.3 2.56-47.51 7.13-94.92 11.11-142.39q1.49-17.79 3.36-35.58 1.72-17.79 3.88-35.56 2-17.78 4.47-35.52l4.47-35.55c1.33-11.89 3-23.74 5.27-35.5s5.33-23.37 8.67-34.9c6.93-23 15.67-45.62 27.94-67a2.5 2.5 0 014.67 1.1zm669.66 563.61c-13-21.15-14.26-42.48-15.36-63.79-1.55-21.29-2.37-42.57-3.18-63.81-1.29-42.49-2.35-84.93-6.84-127.09-2.1-21.09-4.68-42.13-7.6-63.13s-5.87-42-10.4-62.78l-6.15-31.25c-1.62-10.5-2.91-21.07-3.95-31.71s-1.51-21.39-1.85-32.22a255.57 255.57 0 011-32.95v-.06a2.52 2.52 0 012.78-2.24 2.56 2.56 0 011.93 1.27c11 19.49 18.9 39.78 25.3 60.43a343 343 0 0113.26 63.2c2.77 21.37 6.43 42.62 9.3 64l7.73 64.25c4.22 42.93 8.6 85.89 10.74 128.87.87 21.5 1.31 43 .83 64.43-.11 21.45-.51 42.88-12.71 64.5a2.8 2.8 0 01-3.81 1.06 2.85 2.85 0 01-1.02-.98z"/><path d="M1582.91 1411.71c-45 4.4-101.06 6-144.61-5.43v24.12c-.088 33.576-27.294 60.769-60.87 60.84h-332.12c-33.553-.104-60.722-27.287-60.81-60.84v-19.32c-43.41 6.6-93.94 3.75-133.16-.68 2.06-40.36 5.74-79 10.55-115.67 36 1.51 82.47 2.16 122.61-1.31v-43.34c.072-33.555 27.255-60.738 60.81-60.81h332.12a60.91 60.91 0 0148.42 24.13 60.25 60.25 0 0112.44 36.71v40.63c40.42 5.88 92.71 5.88 134.54 4.5 4.68 36.86 8.15 75.73 10.08 116.47z" class="R"/></g><path d="M1048.76 1348.04c-45.67 18.48-116.34 14.62-164.52 8.79a51.74 51.74 0 01-44.93-59c3.861-26.286 27.01-45.372 53.55-44.15 45.06 2.11 112.66 3.1 155.47-6.39" class="Q"/><g class="P"><path d="M1048.77 1348.03c-45.68 18.51-116.36 14.61-164.53 8.81a51.81 51.81 0 01-39.6-75.38 51.63 51.63 0 0039.6 27.37c48.09 5.83 118.65 9.7 164.33-8.7z" class="R"/><path d="M957.9 1377.4a638.15 638.15 0 01-75.56-4.93c-36.013-4.412-62.101-36.497-59.074-72.653s34.088-63.455 70.334-61.817c66.07 3.09 119.81 1 151.32-6 5.74-1.28 25.32-2.8 35.87 31.11 9.91 31.88 8.46 85.58-26.12 99.58-27.27 10.99-62.18 14.71-96.77 14.71zm90.86-29.35zM890.4 1269.4c-19.099-.065-34.924 14.796-36.058 33.861s12.817 35.698 31.788 37.899c68.3 8.27 124 5.52 156.72-7.74 7-2.82 9.74-14.5 10.61-19.38 3.54-19.81-1.62-42.61-6.3-50.39-43.78 8.7-108 8-155 5.79-.62-.04-1.19-.04-1.76-.04z"/></g><path d="M1398.05 1348.04c45.67 18.48 116.34 14.62 164.53 8.79a51.74 51.74 0 0044.92-59c-3.861-26.286-27.01-45.372-53.55-44.15-45.06 2.11-112.66 3.1-155.47-6.39" class="Q"/><g class="P"><path d="M1562.57 1356.84c-48.18 5.8-118.85 9.7-164.53-8.81l.2-48.34c45.68 18.39 116.23 14.53 164.33 8.7a51.53 51.53 0 0039.48-27.17 51.13 51.13 0 015.47 16.66 51.79 51.79 0 01-44.95 58.96z" class="R"/><path d="M1488.91 1377.4c-34.59 0-69.5-3.71-96.77-14.75-34.58-14-36-67.7-26.12-99.58 10.55-33.91 30.13-32.39 35.87-31.11 31.51 7 85.24 9.13 151.33 6 36.242-1.63 67.294 25.671 70.318 61.823s-23.059 68.232-59.068 72.647a638 638 0 01-75.56 4.97zm-84.95-44c32.77 13.26 88.42 16 156.73 7.74 19.359-2.179 33.473-19.362 31.849-38.775s-18.397-34.013-37.849-32.945c-47 2.2-111.26 2.91-155-5.79-4.68 7.78-9.84 30.58-6.3 50.39.87 4.88 3.66 16.56 10.61 19.38z"/></g><path d="M1415.7 1214.05v161.35c-.093 30.033-24.417 54.357-54.45 54.45h-297.23c-30.02-.11-54.322-24.43-54.41-54.45v-161.35c.088-30.015 24.395-54.327 54.41-54.42h297.23c30.037.055 54.378 24.383 54.45 54.42z" class="Q"/><g class="P"><path d="M1415.7 1214.05v161.35c-.088 30.03-24.41 54.352-54.44 54.44h-297.22c-30.03-.088-54.352-24.41-54.44-54.44v-60.36c44.64 45.51 132.42 74.08 212.94 74.51 25.87.13 46.74-20.33 48.58-46.14 0-.25 0-.51.07-.77 2.172-24.078 22.274-42.57 46.449-42.73s44.52 18.063 47.011 42.11c39-48.11 27.56-131.74 39.95-160.85a54 54 0 0111.1 32.88z" class="R"/><path d="M1361.27 1445.64h-297.24c-38.737-.05-70.126-31.443-70.17-70.18v-161.42c.044-38.736 31.434-70.126 70.17-70.17h297.24c38.736.044 70.126 31.434 70.17 70.17v161.42c-.044 38.737-31.433 70.13-70.17 70.18zm-297.24-270.24c-21.345.028-38.642 17.325-38.67 38.67v161.42c.028 21.345 17.325 38.642 38.67 38.67h297.24c21.345-.028 38.642-17.325 38.67-38.67v-161.45c-.028-21.345-17.325-38.642-38.67-38.67z"/></g><circle cx="2129.1" cy="1632.35" r="46.94" transform="rotate(-45 1315.998 2442.695)" fill="#22a7f0"/><path d="M1364.85 1294.75a47.59 47.59 0 01-.91 9.38c-4.506-21.836-23.734-37.501-46.03-37.501s-41.524 15.665-46.03 37.501a48.36 48.36 0 01-.91-9.38c0-25.924 21.016-46.94 46.94-46.94s46.94 21.016 46.94 46.94z" opacity=".7" class="Q"/><g class="P"><path d="M1364.85 1294.74c0 25.919-21.011 46.93-46.93 46.93s-46.93-21.011-46.93-46.93a45.88 45.88 0 013.22-17 46.9 46.9 0 0087.42 0 45.88 45.88 0 013.22 17z" class="R"/><path d="M1317.95 1353.5c-32.447 0-58.75-26.303-58.75-58.75s26.303-58.75 58.75-58.75 58.75 26.303 58.75 58.75c-.033 32.433-26.317 58.717-58.75 58.75zm0-93.87a35.12 35.12 0 1035.12 35.12c-.022-19.387-15.733-35.098-35.12-35.12zm-133.01 182.07c-6.528 0-11.82-5.292-11.82-11.82v-85.74a47.27 47.27 0 00-18.73-37.56l-12.56-9.45a71 71 0 01-28.15-56.43v-81.08c.186-6.391 5.421-11.476 11.815-11.476s11.629 5.085 11.815 11.476v81.08a47.24 47.24 0 0018.73 37.55l12.56 9.46a71 71 0 0128.15 56.43v85.74c0 6.524-5.286 11.814-11.81 11.82z"/><path d="M1572.85 938.13c-10.77 10-22 19.47-33.69 28.35a485.41 485.41 0 01-74.54 47.07c-170.558 86.683-376.25 64.213-524.07-57.25-1.1-.84-2.19-1.77-3.24-2.69a482.66 482.66 0 01-98.46-112.83 447.35 447.35 0 00118.17 20.41c-10.52-29.66-29.87-62.26-24.44-78.37 9-26.55 16.82-47.41 22.63-62.14 6.6-16.82 10.56-25.62 10.56-25.62h486.58s4 8.67 10.81 25.37c7 17.29 17 43.16 28.31 77.11 7 20.95 14.6 45 22.34 71.89 15.44 16.37 36.04 39.46 59.04 68.7z" class="R"/></g><path d="M1706.18 723.73c-5.433-.789-9.213-5.811-8.47-11.25l40-284a9.94 9.94 0 0111.24-8.47c57.128 8.041 96.921 60.872 88.88 118l-13.64 96.84a104.46 104.46 0 01-118.01 88.88z" class="Q"/><g class="P"><path d="M1720.85 727.82a108.34 108.34 0 01-15.06-1.05 13 13 0 01-11.08-14.72l40-284a13 13 0 0114.71-11.08c58.762 8.314 99.681 62.659 91.43 121.43l-13.64 96.84c-7.516 53.006-52.824 92.444-106.36 92.58zm26.73-304.84a6.86 6.86 0 00-6.8 5.92l-40 284a6.88 6.88 0 005.85 7.78c55.429 7.728 106.654-30.869 114.51-86.28l13.64-96.85c7.74-55.432-30.847-106.669-86.26-114.54a8.06 8.06 0 00-.98-.03z"/><path d="M1830.57 589.4l-6.38 45.42c-8.062 57.116-60.878 96.898-118 88.88-5.437-.789-9.219-5.817-8.47-11.26l10.6-75.51a10 10 0 008.15 7.12l6.74.93c43.965 6.192 87.036-16.105 107.36-55.58z" class="R"/><path d="M1720.85 741.84a121.55 121.55 0 01-17-1.2c-14.784-2.09-25.079-15.764-23-30.55l40-284c2.09-14.784 15.764-25.079 30.55-23 66.437 9.407 112.686 70.866 103.33 137.31l-13.64 96.85c-8.523 59.898-59.739 104.448-120.24 104.59zm-5.17-34.32c45.387 2.601 85.204-29.993 91.62-75l13.63-96.84c6.29-45.037-22.97-87.384-67.32-97.43z"/></g><path d="M811.52 288.01a9.94 9.94 0 018.47 11.24l-40 284c-.785 5.432-5.801 9.217-11.24 8.48-57.125-8.047-96.915-60.873-88.88-118l13.64-96.84a104.45 104.45 0 01118.01-88.88z" class="Q"/><g class="P"><path d="M770.15 594.89a14 14 0 01-1.82-.12 107.52 107.52 0 01-91.48-121.47l13.63-96.85a107.52 107.52 0 01121.47-91.48 13 13 0 0111.08 14.71l-40 284a13 13 0 01-12.88 11.21zm26.59-304.86c-50.453.128-93.142 37.32-100.18 87.28l-13.64 96.84a101.39 101.39 0 0086.26 114.54 6.87 6.87 0 007.78-5.86l40-284a6.86 6.86 0 00-5.85-7.78 102.4 102.4 0 00-14.37-1.02z"/><path d="M791.12 504.47l-11.1 78.79c-.789 5.442-5.824 9.225-11.27 8.47a104.42 104.42 0 01-88.86-118l5.75-40.81c11.566 39.338 45.069 68.277 85.67 74l10.37 1.45a10.05 10.05 0 009.44-3.9z" class="R"/><path d="M770.16 608.91a27.16 27.16 0 01-3.79-.27c-66.467-9.362-112.76-70.833-103.4-137.3l13.64-96.84a121.54 121.54 0 01137.3-103.41 27 27 0 0123 30.54l-40 284c-1.893 13.329-13.287 23.245-26.75 23.28zm26.61-304.86c-43.477.115-80.263 32.16-86.34 75.21l-13.58 96.84c-6.346 45.052 22.937 87.436 67.32 97.44l37.93-269.33a87.41 87.41 0 00-5.33-.16zm12.37.87z"/></g><circle cx="1258.91" cy="505.87" r="488.74" class="Q"/><g class="P"><path d="M1259.01 997.73a491.81 491.81 0 01-103-10.95c-265.17-56.76-434.72-318.68-378-583.85s318.66-434.74 583.85-378 434.73 318.69 378 583.86c-49.41 230.61-253.95 388.94-480.85 388.94zm-.2-977.58c-224.09 0-426 156.31-474.81 384.06-56.05 261.87 111.39 520.51 373.25 576.57s520.51-111.38 576.6-373.25S1622.46 87.02 1360.6 30.96a486.72 486.72 0 00-101.75-10.81z"/><path d="M1746.4 541.04a486 486 0 01-9.57 67.14c-56.54 263.93-316.3 432.09-580.23 375.62S724.51 667.51 780.98 403.57a465.99 465.99 0 015.39-22.55C768.79 620.55 930.06 842.4 1171.56 894.1c256.34 54.86 508.7-102.18 574.84-353.06z" class="R"/><path d="M1259.02 1011.75a505.81 505.81 0 01-106-11.27C880.29 942.1 705.91 672.73 764.29 400s327.77-447.12 600.49-388.74 447.11 327.76 388.73 600.49c-50.76 237.19-261.13 400-494.49 400zm-.17-977.58c-217.62 0-413.76 151.79-461.11 373-54.43 254.31 108.17 505.49 362.48 559.93s505.5-108.17 559.94-362.48-108.21-505.51-362.52-559.95a472.08 472.08 0 00-98.79-10.5zm478 574z"/><path d="M1732.66 620.12c-18.6 93.82-66.33 174.87-132.7 236.6-49.76 46.28-229 109-427.57 71.48-184.1-34.79-331.87-165.94-360.2-227.7-37.79-82.39-51-175.53-32.37-269.34 49.24-248.25 282.93-308.87 546.03-256.68s456 197.39 406.81 445.64z"/></g><g class="Q"><ellipse cx="2395.66" cy="893.29" rx="86.49" ry="62.67" transform="rotate(-68.51 1742.303 1320.025)" opacity=".5"/><ellipse cx="2287.02" cy="1046.41" rx="39.7" ry="34.07" transform="rotate(-60.57 1592.438 1572.084)" opacity=".5"/></g><path d="M1685.93 370.15c47.22 67.13 66.49 150.25 46.73 250-18.61 93.83-66.35 174.88-132.69 236.62-49.77 46.27-229 109-427.59 71.48-70.11-13.23-134.92-40.45-189.91-72.52 245.05 40.9 463.59-36.37 525.29-93.78 84.25-78.34 144.82-181.23 168.41-300.28a495.08 495.08 0 009.76-91.52z" fill="#111a28" class="R"/><path d="M1734.85 409.48a15.17 15.17 0 01-11.69-5.48l-1.32-1.53-.9-2c-57.93-128.44-200.37-223.76-390.81-261.53-191.49-38-359.77-2.1-461.72 98.4l-1.17 1c-6.351 5.484-15.946 4.781-21.43-1.57s-4.781-15.946 1.57-21.43c109.26-107.46 287.34-146.2 488.66-106.27 199.83 39.64 350 141 412.25 278.08a15.18 15.18 0 01-13.44 22.33z" class="P"/><path d="M857.53 600.06s-28.32-260.14 123-331.56 341.17-33.37 334.32-22.1c0 0-220.31 9.2-335.52 159.08-88.85 115.61-121.8 194.58-121.8 194.58z" opacity=".5" class="Q"/><g class="P"><circle cx="1614.4" cy="2090.19" r="12.08"/><path d="M1347.97 1536.4s168.15-58.63 307.27 82.75c127.85 129.93-21.59 258.13-21.59 258.13s46 177.05-73.51 199.76c-101.47 19.28-193.17-78.8-181.45-200.14 9.64-99.78 31.55-90.48 23.48-145.21-9.14-62-141.22-75.91-141.22-75.91h-49.68s-132.08 14-141.22 75.91c-8.07 54.73 13.84 45.43 23.48 145.21 11.72 121.34-80 219.42-181.45 200.14-119.56-22.71-73.51-199.76-73.51-199.76s-149.44-128.2-21.59-258.13c139.12-141.43 307.27-82.75 307.27-82.75z" opacity=".3"/></g><path d="M1371.65 1485.12s203.75-118.77 372.32 52.55c154.88 157.43-26.12 312.73-26.12 312.73s55.8 214.54-89.08 242.06c-123 23.35-234.06-95.49-219.86-242.52 11.68-120.9 38.22-109.64 28.44-175.94-11.07-75.08-171.11-92-171.11-92h-60.2s-160 16.91-171.11 92c-9.78 66.3 16.77 55 28.44 175.94 14.21 147-96.9 265.87-219.85 242.52-144.88-27.52-89.08-242.06-89.08-242.06s-181.07-155.34-26.16-312.77c168.57-171.32 372.32-52.55 372.32-52.55" class="Q"/><g class="P"><path d="M1706.96 2044.72c-14.93 22.42-39.36 40.43-78.21 47.79-123 23.36-234.08-95.52-219.87-242.53 11.68-120.91 38.21-109.65 28.45-175.93-11.08-75.08-171.14-92-171.14-92h-60.2s-160 16.9-171.09 92c-9.8 66.28 16.77 55 28.45 175.93 14.21 147-96.91 265.89-219.87 242.53-38.85-7.36-63.28-25.37-78.21-47.79l3.21.6c146.45 25.28 278.78-100.14 261.88-259.39-13.94-130.92-45.56-118.72-33.88-190.56 13.18-81.29 203.78-99.6 203.78-99.6h71.71s190.6 18.31 203.78 99.6c11.64 71.84-20 59.64-33.88 190.56-16.9 159.25 115.43 284.67 261.88 259.39 1.1-.18 2.1-.39 3.21-.6z" class="R"/><path d="M1369.01 1480.58c27.19-18.69 57.45-31.34 89.21-40a323.14 323.14 0 0148.63-9.18 327 327 0 0149.9-1c16.71.93 33.3 3.8 49.67 7.54s32.22 9.64 47.76 16c30.71 13.76 58.85 32.69 83.69 54.77 24.63 21.9 46.9 48.17 62.88 78.54a208.33 208.33 0 0117.7 48.63 187 187 0 013.38 51.84c-2.53 34.64-14.42 67.5-31.06 96.52a324.1 324.1 0 01-28.21 41.32c-5.23 6.46-10.6 12.81-16.3 18.88-2.84 3.06-5.73 6.06-8.71 9s-5.86 5.74-9.5 8.93l5-15.92c2.89 11.77 4.82 22.63 6.55 34s2.9 22.61 3.65 34a319 319 0 01-2.38 69.19 219.81 219.81 0 01-8.27 34.64 167.6 167.6 0 01-15.53 33.17 133.87 133.87 0 01-24.6 28.44 131.09 131.09 0 01-32.21 19.56 158.56 158.56 0 01-35.43 9.54c-5.91 1.08-11.94 1.36-17.93 1.91-6 .07-12 .42-18-.07a170.13 170.13 0 01-35.64-5.4 177 177 0 01-33.78-12.25c-43.39-20.62-77.54-56.74-99-98.35-21.5-41.78-30.83-89.26-28-135.71.65-11.82 2.12-22.65 3.38-33.89l2.4-16.77 3-16.77c2.31-11.17 4.8-22.39 8.11-33.4 3.13-11 7.07-21.83 10-31.51a88.47 88.47 0 004.3-27.87 69.54 69.54 0 00-.26-7.29c-.16-2.46-.27-4.91-.65-7.47l-.93-7.61c-.48-2-.74-3.88-1.31-5.79-4.48-15.08-19-28.41-36.33-38.12s-37.24-17-57.52-22.67a437.81 437.81 0 00-62.05-12.29l1.65.08h-60.2l1.66-.08a437.66 437.66 0 00-62.06 12.29c-20.28 5.64-40.13 12.81-57.52 22.67s-31.84 23-36.32 38.12c-.57 1.91-.83 3.77-1.32 5.79l-.93 7.61c-.38 2.56-.49 5-.64 7.47a67 67 0 00-.27 7.29 88.19 88.19 0 004.31 27.87c2.94 9.68 6.88 20.52 10 31.51 3.3 11 5.79 22.23 8.11 33.4l3 16.77 2.39 16.77c1.26 11.24 2.73 22.07 3.38 33.89 2.85 46.45-6.47 93.93-28 135.71-21.47 41.61-55.63 77.73-99 98.35a177.18 177.18 0 01-33.77 12.25 170.32 170.32 0 01-35.65 5.4c-6 .49-12 .14-18 .07-6-.55-12-.83-17.93-1.91a158.7 158.7 0 01-35.43-9.54 131.27 131.27 0 01-32.21-19.56 133.87 133.87 0 01-24.6-28.44 168.16 168.16 0 01-15.53-33.17 222 222 0 01-8.27-34.64 319 319 0 01-2.38-69.19q1.13-17.11 3.65-34c1.73-11.38 3.66-22.24 6.55-34l5 15.92c-3.64-3.19-6.45-5.91-9.5-8.93s-5.87-6-8.71-9c-5.7-6.07-11.07-12.42-16.3-18.88a325.14 325.14 0 01-28.21-41.32c-16.61-29-28.58-61.87-31-96.52a186.25 186.25 0 013.55-51.79 207.75 207.75 0 0117.73-48.53c16.17-30.2 38.53-56.23 63.26-77.89 24.76-22 52.61-41.15 83.25-54.92 30.46-14 63.52-23 97-25.42a313.85 313.85 0 0150.11.63 325.7 325.7 0 0148.94 8.88 304.09 304.09 0 0146.38 16.84c14.92 6.95 29.15 14.81 42.43 25a5.29 5.29 0 01-5 9.19l-.33-.11a543.5 543.5 0 00-89.62-22.84c-15-2.5-30.16-3.87-45.2-4.85-7.54-.09-15.07-.54-22.56-.21l-11.25.29-11.2.81a278.41 278.41 0 00-86.59 21.36 257.57 257.57 0 00-39.57 21.31 280.86 280.86 0 00-35.89 27.54c-23 20.1-42.43 43.18-56.29 69a175.77 175.77 0 00-15 40.6 154.8 154.8 0 00-2.92 42.86c2 28.81 12.1 57.21 26.94 83.13a293.91 293.91 0 0025.43 37.23c4.75 5.87 9.64 11.65 14.79 17.14 2.57 2.76 5.18 5.47 7.83 8.1s5.49 5.35 7.82 7.39l7.32 6.42-2.33 9.5c-2.34 9.57-4.33 20.36-5.87 30.7s-2.69 21-3.38 31.49a288.29 288.29 0 002.07 62.28 190.85 190.85 0 007 29.4 136.09 136.09 0 0012.31 26.4 102.56 102.56 0 0018.34 21.24 99.91 99.91 0 0023.92 14.5 127.48 127.48 0 0028.06 7.48c4.9.93 9.88 1.1 14.82 1.59 5 0 9.93.37 14.88-.07a138.6 138.6 0 0029.39-4.45 146.16 146.16 0 0028.07-10.18c36.25-17.19 65.84-48.06 84.56-84.36s27-78.2 24.51-119.42c-.53-10.13-2-21.09-3.18-31.68l-2.26-15.85-2.76-15.68c-2.16-10.34-4.42-20.58-7.44-30.63s-6.48-20-10-31.29a120.93 120.93 0 01-5.63-37c-.09-3.15.13-6.15.33-9.17s.35-6.06.77-8.93l1.08-8.75c.67-3.34 1.29-6.93 2.3-10.27 4.11-13.57 12.11-25.17 21.17-34.27s19.31-16.22 29.72-22.18c20.89-11.81 42.76-19.53 64.74-25.67a465.6 465.6 0 0167.15-13.26l.71-.09h62.08l.72.09a465.47 465.47 0 0167.14 13.26c22 6.14 43.85 13.86 64.75 25.67 10.4 6 20.61 13 29.72 22.18s17 20.7 21.16 34.27c1 3.34 1.64 6.93 2.3 10.27l1.08 8.75c.42 2.87.58 5.91.77 8.93s.42 6 .33 9.17a120.93 120.93 0 01-5.63 37l-10 31.29c-2.93 10.14-5.28 20.29-7.43 30.63l-2.77 15.68-2.26 15.85c-1.19 10.59-2.65 21.55-3.18 31.68-2.53 41.22 5.78 83 24.52 119.42s48.3 67.17 84.55 84.36a146.16 146.16 0 0028.07 10.18 138.6 138.6 0 0029.39 4.45c4.95.44 9.92.09 14.88.07 4.94-.49 9.92-.66 14.82-1.59a127.33 127.33 0 0028.06-7.48 100.17 100.17 0 0023.93-14.5 102.51 102.51 0 0018.33-21.24 136.09 136.09 0 0012.31-26.4 189.69 189.69 0 007-29.4 288.28 288.28 0 002.08-62.28c-.7-10.51-1.83-21-3.39-31.49s-3.52-21.13-5.87-30.7l-2.33-9.5 7.32-6.42c2.33-2 5.25-4.82 7.82-7.39s5.27-5.34 7.83-8.1c5.15-5.49 10-11.27 14.79-17.14a293.91 293.91 0 0025.43-37.23c14.82-25.92 25-54.31 26.89-83.14a154.78 154.78 0 00-3.09-42.8 175.47 175.47 0 00-15.12-40.45c-14-25.64-33.65-48.39-56.61-68.39a305.29 305.29 0 00-75-49.06 277.9 277.9 0 00-86.27-23c-29.89-3.11-60.43-1.66-90.68 3.24a431.7 431.7 0 00-89.23 24.62l-.36.14a5.26 5.26 0 01-4.93-9.22z"/><path d="M1723.85 1865.08l-10.84 3.45c-4 1.13-8 2.17-12.08 2.94a146 146 0 01-24.27 2.77 194.44 194.44 0 01-46.93-4.59 274.38 274.38 0 01-43.55-14.18c-7-2.77-13.72-6.32-20.53-9.42-6.66-3.47-13.2-7.14-19.76-10.67l21.21 7c7.21 1.84 14.25 4.12 21.49 5.57a261.46 261.46 0 0043.25 6.08 174.22 174.22 0 0042.07-3.27 120.07 120.07 0 0019.47-5.81c3.11-1.19 6.12-2.58 9.1-4l9.75-5.14a15.84 15.84 0 1114.76 28 16.33 16.33 0 01-2.49 1.06zm-962.22-29.29l9.76 5.14 9.09 4a120.07 120.07 0 0019.47 5.81 174.22 174.22 0 0042.07 3.27 261.73 261.73 0 0043.26-6.08c7.23-1.45 14.27-3.73 21.48-5.57 7.07-2.22 14.1-4.67 21.21-7l-19.76 10.67c-6.81 3.1-13.5 6.65-20.53 9.42a274 274 0 01-43.55 14.18 194.39 194.39 0 01-46.93 4.59 145.8 145.8 0 01-24.26-2.77c-4.06-.77-8.09-1.81-12.09-2.94l-10.83-3.45-.57-.18a15.84 15.84 0 119.6-30.19 17.32 17.32 0 012.58 1.1zm1037.95-100.07a11.85 11.85 0 01-11.56-14.29c5.44-25.41 1.48-43.43-12.12-55.09-56.38-48.38-259 13.42-332.3 41.32a11.81 11.81 0 11-8.4-22.08c28.32-10.78 278.93-103.38 356.08-37.18 20.49 17.58 27.16 43.81 19.84 78a11.81 11.81 0 01-11.54 9.32zm-1122.19 0a11.83 11.83 0 01-11.54-9.32c-7.32-34.17-.64-60.4 19.84-78 77.16-66.2 327.77 26.4 356.09 37.18a11.813 11.813 0 013.253 20.202 11.81 11.81 0 01-11.663 1.878c-73.32-27.89-276-89.68-332.29-41.32-13.6 11.67-17.56 29.69-12.12 55.09a11.85 11.85 0 01-11.57 14.29z"/></g></svg>