<svg xmlns="http://www.w3.org/2000/svg" viewBox="0 0 42.23 49.23" xmlns:v="https://vecta.io/nano"><path d="M35.68 12.25l-2.48 1.53a2.59 2.59 0 0 0-3-.61l-4.76 2.33 2.24-2.12.62-.43a2.42 2.42 0 0 0 .73-.77l5.63-4.86c2.27-2-1-5.12-3.29-3.28l-6.14 5.29-.74.62-.21.15 3.49-3.36a2.07 2.07 0 0 0 .39-2.66l.4-.58c1.49-2.18-1.87-4.74-3.65-2.82L5.01 22.13a2.24 2.24 0 0 0-.64 1.81 23.62 23.62 0 0 0-3.93 4c-1.55 2 1.33 4.07 3.18 3.18l2.44-1.18a7.89 7.89 0 0 0-.5 2.18 2.34 2.34 0 0 0 3.49 2l2.79-1.72-.34.63a2.3 2.3 0 0 0 1.57 3.39l-6.48 5.8c-1.85 1.82.55 5.09 2.81 3.65l3.06-2-1.33 1.3c-1.86 1.79.58 5.15 2.81 3.65l11.15-7.53c.81-.38 1.59-.83 2.35-1.27a19.55 19.55 0 0 0 4.64-3.49 2.48 2.48 0 0 0-1.24-4l1.55-1.49a2.23 2.23 0 0 0 .18-3 2.34 2.34 0 0 0-1-4 27.74 27.74 0 0 0 3-4.84l3.87-3.31c2.12-1.72-.53-5.01-2.76-3.64z" fill="#79fc79"/><path d="M21.73 39.76h-2.32a2.39 2.39 0 0 1-2.38-2.38v-19a1.32 1.32 0 0 0-1.31-1.32h-1.64a2.39 2.39 0 0 1-2.38-2.38v-1.64a2.39 2.39 0 0 1 2.38-2.38h7.65a2.39 2.39 0 0 1 2.38 2.38v24.34a2.39 2.39 0 0 1-2.38 2.38zm-7.65-28a1.33 1.33 0 0 0-1.32 1.32v1.64a1.32 1.32 0 0 0 1.32 1.32h1.64a2.38 2.38 0 0 1 2.38 2.38v19a1.32 1.32 0 0 0 1.31 1.32h2.32a1.33 1.33 0 0 0 1.32-1.32V13.04a1.33 1.33 0 0 0-1.32-1.32z"/><path d="M33 22.97v2.26h-.34a2 2 0 0 0-2 2v2.27a4.09 4.09 0 0 1-1.26 3 4.16 4.16 0 0 1-3 1.25h-.33V31.5h.33a2.07 2.07 0 0 0 2-2v-2.25a4.3 4.3 0 0 1 4.28-4.28zm1.89 1.47h1.12v-2.82h2.26v2.82h2.36v2.25h-2.36v1.69a2 2 0 0 0 2 2h.34v2.26h-.34a4.3 4.3 0 0 1-4.28-4.28v-1.67h-1.1z" fill="none" stroke="#000" stroke-miterlimit="10"/><g fill="#79fc79"><path d="M42.23 8.5a1.15 1.15 0 0 1-1.963.813 1.15 1.15 0 0 1 .813-1.963 1.15 1.15 0 0 1 1.15 1.15z"/><circle cx="5.1" cy="37.15" r="1.28"/><path d="M3.28 17.2a.62.62 0 1 1-.62-.62.62.62 0 0 1 .62.62zm34.88 23.72a1.24 1.24 0 1 1-1.24-1.24 1.24 1.24 0 0 1 1.24 1.24zm-.89-4.25a.54.54 0 1 1 .53.53.53.53 0 0 1-.53-.53z"/></g><path d="M4.67 28.44a1.07 1.07 0 0 1-1.827.767 1.07 1.07 0 0 1 .767-1.827 1.07 1.07 0 0 1 1.06 1.06z"/><circle cx="24.66" cy="4.93" r="1.37"/><path d="M18.68 45.5a1.55 1.55 0 0 1-2.65 1.092 1.55 1.55 0 0 1 1.11-2.642 1.55 1.55 0 0 1 1.54 1.55z"/><circle cx="39.17" cy="14.42" r=".48"/></svg>