<svg xmlns="http://www.w3.org/2000/svg" xmlns:v="https://vecta.io/nano" xmlns:xlink="http://www.w3.org/1999/xlink" viewBox="0 0 415.04 295.91"><path fill="#29c0ef" d="M97.77 114h38s66.74-45.67 157-59c88-13 105 24 105 24s11 18 3 42c0 0 33.41-46.52-2-78-17.36-15.43-53.08-16.44-85.42-13.36a376.84 376.84 0 0 0-105.08 25.93C177.11 68.13 133.2 88.29 97.77 114zm-92 98h20s-20 29-11 61c0 0-26-15-9-61z"/><path fill="#f99026" d="M48.77 114h19s72-61 162-86 122-2 122-2 0-26-64-26-149 48-149 48-39 19-90 66zm181 140h-33s-59 33-128 20c0 0-35-7-26-45 0 0-22.82 31 .7 53.18a41.57 41.57 0 0 0 17.7 9.71c20.5 5.61 78.16 13.23 168.6-37.89z"/><g fill="#312e3d"><path d="M274.88 235.25a5.59 5.59 0 0 1-3.14-.93 6.3 6.3 0 0 1-2.2-2.48 1.35 1.35 0 0 1-.2-.69 1 1 0 0 1 .37-.82 1.13 1.13 0 0 1 .74-.32 1 1 0 0 1 .58.18 1.83 1.83 0 0 1 .47.45 4.78 4.78 0 0 0 1.42 1.62 3.32 3.32 0 0 0 2 .6 3.94 3.94 0 0 0 2.07-.54 4 4 0 0 0 1.42-1.48 4.36 4.36 0 0 0 .53-2.15v-13.5a1.12 1.12 0 0 1 .35-.85 1.22 1.22 0 0 1 .87-.35 1.12 1.12 0 0 1 .84.35 1.21 1.21 0 0 1 .32.85v13.5a6.8 6.8 0 0 1-.83 3.33 6.22 6.22 0 0 1-5.57 3.23zm11.67-.33a1.2 1.2 0 0 1-.93-.36 1.38 1.38 0 0 1-.32-1v-.6a1.45 1.45 0 0 1 .32-1 1.2 1.2 0 0 1 .93-.36h.22a1.18 1.18 0 0 1 .94.36 1.5 1.5 0 0 1 .32 1v.6a1.43 1.43 0 0 1-.32 1 1.18 1.18 0 0 1-.94.36zm14.59.33a9.87 9.87 0 0 1-4.05-.82 10.16 10.16 0 0 1-3.28-2.29 10.82 10.82 0 0 1-2.19-3.43 12 12 0 0 1 0-8.5 10.71 10.71 0 0 1 2.19-3.43 10 10 0 0 1 7.33-3.09 11.25 11.25 0 0 1 2.8.35 8.22 8.22 0 0 1 2.46 1.06.88.88 0 0 1 .41.42 1.25 1.25 0 0 1 .13.57 1.28 1.28 0 0 1-.32.87 1 1 0 0 1-.76.36.87.87 0 0 1-.32-.06l-.33-.12a9.19 9.19 0 0 0-1.91-.77 8 8 0 0 0-2.16-.28 7.47 7.47 0 0 0-4 1.11 7.9 7.9 0 0 0-2.8 3 9.47 9.47 0 0 0 0 8.55 8 8 0 0 0 2.8 3 7.47 7.47 0 0 0 4 1.11 8.93 8.93 0 0 0 2.35-.33 8.34 8.34 0 0 0 2.06-.84l-.2.72v-6.32l.46.42h-4.36a1.08 1.08 0 0 1-.81-.35 1.16 1.16 0 0 1-.33-.85 1.18 1.18 0 0 1 .33-.85 1.08 1.08 0 0 1 .81-.35h5.18a1.05 1.05 0 0 1 .83.36 1.32 1.32 0 0 1 .31.87v6.92a1.18 1.18 0 0 1-.16.63 1.36 1.36 0 0 1-.41.45 11.65 11.65 0 0 1-2.83 1.39 10 10 0 0 1-3.23.52zm10.98-.33a1.16 1.16 0 0 1-.92-.36 1.38 1.38 0 0 1-.33-1v-.6a1.46 1.46 0 0 1 .33-1 1.16 1.16 0 0 1 .92-.36h.23a1.19 1.19 0 0 1 .94.36 1.55 1.55 0 0 1 .31 1v.6a1.47 1.47 0 0 1-.31 1 1.19 1.19 0 0 1-.94.36zm6.66-20.93h10.12a1.15 1.15 0 0 1 .83.33 1.11 1.11 0 0 1 .34.84 1.05 1.05 0 0 1-.34.82 1.18 1.18 0 0 1-.83.32h-9.16l.26-.51v7.57l-.28-.32h7.9a1.18 1.18 0 0 1 .83.32 1.11 1.11 0 0 1 .34.84 1.07 1.07 0 0 1-.34.83 1.17 1.17 0 0 1-.83.31h-7.82l.2-.27v7.76l-.17-.21h9.07a1.1 1.1 0 0 1 .83.36 1.14 1.14 0 0 1 .34.81 1.09 1.09 0 0 1-.34.83 1.15 1.15 0 0 1-.83.33h-10.12a1 1 0 0 1-.81-.36 1.22 1.22 0 0 1-.33-.86v-18.54a1.18 1.18 0 0 1 .33-.85 1.05 1.05 0 0 1 .81-.35zm15.36 20.93a1.2 1.2 0 0 1-.93-.36 1.38 1.38 0 0 1-.32-1v-.6a1.45 1.45 0 0 1 .32-1 1.2 1.2 0 0 1 .93-.36h.23a1.16 1.16 0 0 1 .93.36 1.5 1.5 0 0 1 .32 1v.6a1.43 1.43 0 0 1-.32 1 1.16 1.16 0 0 1-.93.36zm19.85-19.55a1 1 0 0 1 .56.81 1.28 1.28 0 0 1-.27 1 .81.81 0 0 1-.66.41 1.34 1.34 0 0 1-.79-.17 8.68 8.68 0 0 0-2-1 7.46 7.46 0 0 0-7.77 2 8 8 0 0 0-1.59 2.64 9.63 9.63 0 0 0-.57 3.38 9.8 9.8 0 0 0 .6 3.54 8.05 8.05 0 0 0 1.63 2.65 7.17 7.17 0 0 0 2.42 1.66 7.78 7.78 0 0 0 3 .57 7.66 7.66 0 0 0 2.25-.33 8.14 8.14 0 0 0 2-1 1.25 1.25 0 0 1 .79-.15 1.06 1.06 0 0 1 .69.42 1.32 1.32 0 0 1 .25 1 1 1 0 0 1-.54.77 11.12 11.12 0 0 1-3.51 1.4 9.38 9.38 0 0 1-2 .21 10.11 10.11 0 0 1-3.87-.75 9.64 9.64 0 0 1-3.21-2.15 10.26 10.26 0 0 1-2.21-3.4 11.8 11.8 0 0 1-.81-4.48 11.64 11.64 0 0 1 .77-4.28 10.15 10.15 0 0 1 5.36-5.63 9.75 9.75 0 0 1 4-.81 10.05 10.05 0 0 1 2.89.42 9.32 9.32 0 0 1 2.59 1.27zM24.27 202.5a6.07 6.07 0 0 1-2.31-.4 6.22 6.22 0 0 1-1.92-1.3 1.19 1.19 0 0 1-.21-.29.77.77 0 0 1 .13-.87.64.64 0 0 1 .5-.23.6.6 0 0 1 .45.21 5.24 5.24 0 0 0 1.5 1.07 4.31 4.31 0 0 0 1.83.37 3.73 3.73 0 0 0 1.41-.26 2.45 2.45 0 0 0 1-.72 1.66 1.66 0 0 0 .37-1.07 1.88 1.88 0 0 0-.42-1.22 3 3 0 0 0-1.1-.81 8.63 8.63 0 0 0-1.63-.55 8.51 8.51 0 0 1-1.5-.5 4.41 4.41 0 0 1-1.19-.73 3 3 0 0 1-.77-1.05 3.6 3.6 0 0 1-.28-1.45 3.2 3.2 0 0 1 .54-1.85 3.49 3.49 0 0 1 1.47-1.23 5.17 5.17 0 0 1 2.18-.44 5.86 5.86 0 0 1 2.05.37 4 4 0 0 1 1.56 1 1 1 0 0 1 .35.68.7.7 0 0 1-.22.51.67.67 0 0 1-.51.23.47.47 0 0 1-.35-.14 2.86 2.86 0 0 0-.77-.63 4.2 4.2 0 0 0-1-.45 4.12 4.12 0 0 0-2.55.09 2.28 2.28 0 0 0-1 .7 1.9 1.9 0 0 0 .05 2.24 2.87 2.87 0 0 0 1.05.74 11.27 11.27 0 0 0 1.46.51 12.7 12.7 0 0 1 1.61.51 4.71 4.71 0 0 1 1.27.71 2.8 2.8 0 0 1 .83 1.08 4.08 4.08 0 0 1 .29 1.62 3.07 3.07 0 0 1-.55 1.81 3.77 3.77 0 0 1-1.5 1.25 5.14 5.14 0 0 1-2.12.49zm11.46-13.17a3.15 3.15 0 0 1 1.76.5 3.43 3.43 0 0 1 1.24 1.37 4.25 4.25 0 0 1 .45 2 4.36 4.36 0 0 1-.45 2 3.51 3.51 0 0 1-1.24 1.4 3.08 3.08 0 0 1-1.76.52h-3.61l.12-.22v4.6a.79.79 0 0 1-.19.54.69.69 0 0 1-1 0 .84.84 0 0 1-.18-.54v-11.43a.72.72 0 0 1 .2-.53.69.69 0 0 1 .51-.21zm0 6.32a1.67 1.67 0 0 0 1-.33 2.32 2.32 0 0 0 .72-.9 3.06 3.06 0 0 0 .26-1.24 2.83 2.83 0 0 0-.26-1.24 2.26 2.26 0 0 0-.72-.86 1.67 1.67 0 0 0-1-.33h-3.61l.12-.2v5.29l-.12-.19zm9.38-4.4l-4.18 10.58a.65.65 0 0 1-.25.35.6.6 0 0 1-.38.13.61.61 0 0 1-.49-.18.63.63 0 0 1-.16-.44.55.55 0 0 1 0-.28l4.62-11.66a.7.7 0 0 1 .28-.38.65.65 0 0 1 .41-.1.75.75 0 0 1 .42.13.65.65 0 0 1 .26.35l4.63 11.55a.74.74 0 0 1 .05.29.69.69 0 0 1-.21.53.68.68 0 0 1-.48.19.63.63 0 0 1-.39-.13.71.71 0 0 1-.27-.37l-4.23-10.58zm-3.29 7.57l.6-1.44h5.29l.26 1.44zm19.32-8.64a.65.65 0 0 1 .35.5.81.81 0 0 1-.17.61.52.52 0 0 1-.41.26 1 1 0 0 1-.5-.11 5.58 5.58 0 0 0-1.26-.59 5 5 0 0 0-3.35.17 4.59 4.59 0 0 0-1.51 1.06 4.9 4.9 0 0 0-1 1.63 6.54 6.54 0 0 0 0 4.28 4.77 4.77 0 0 0 1 1.63 4.23 4.23 0 0 0 1.51 1 5.13 5.13 0 0 0 3.28.15 5.5 5.5 0 0 0 1.28-.59.82.82 0 0 1 .5-.1.68.68 0 0 1 .43.26.85.85 0 0 1 .16.62.6.6 0 0 1-.34.47 6.35 6.35 0 0 1-1 .51 6.06 6.06 0 0 1-1.19.36 5.71 5.71 0 0 1-1.23.13 6.28 6.28 0 0 1-2.42-.46 6 6 0 0 1-3.39-3.43 7.16 7.16 0 0 1-.51-2.77 7 7 0 0 1 .48-2.64 6.4 6.4 0 0 1 1.34-2.09 6.17 6.17 0 0 1 4.5-1.89 6.48 6.48 0 0 1 1.8.26 5.78 5.78 0 0 1 1.65.77zm3.22-.85h6.34a.73.73 0 0 1 .51.2.67.67 0 0 1 .22.52.64.64 0 0 1-.22.51.72.72 0 0 1-.51.19h-5.73l.16-.31v4.68l-.18-.21h4.95a.73.73 0 0 1 .73.73.65.65 0 0 1-.22.5.73.73 0 0 1-.51.2H65l.13-.17v4.79l-.11-.13h5.68a.68.68 0 0 1 .51.23.66.66 0 0 1 .22.5.64.64 0 0 1-.22.51.69.69 0 0 1-.51.21h-6.34a.7.7 0 0 1-.51-.22.8.8 0 0 1-.2-.54v-11.45a.76.76 0 0 1 .2-.53.69.69 0 0 1 .51-.21zm18.63 1.92l-4.18 10.58a.65.65 0 0 1-.25.35.6.6 0 0 1-.37.13.64.64 0 0 1-.5-.18.63.63 0 0 1-.16-.44.56.56 0 0 1 0-.28l4.6-11.66a.75.75 0 0 1 .28-.38.66.66 0 0 1 .42-.1.8.8 0 0 1 .42.13.64.64 0 0 1 .25.35l4.6 11.55a1 1 0 0 1 .05.29.69.69 0 0 1-.21.53.72.72 0 0 1-.49.19.63.63 0 0 1-.39-.13.69.69 0 0 1-.26-.37l-4.24-10.58zm-3.29 7.57l.61-1.44h5.28l.27 1.44zm19.66-9.49a.6.6 0 0 1 .48.19.69.69 0 0 1 .18.49v11.49a.76.76 0 0 1-.21.56.69.69 0 0 1-.52.22.77.77 0 0 1-.32-.07.65.65 0 0 1-.25-.17l-7.61-10.47.35-.23v10.25a.69.69 0 0 1-.18.49.66.66 0 0 1-.49.2.62.62 0 0 1-.47-.2.73.73 0 0 1-.17-.49v-11.52a.72.72 0 0 1 .2-.54.7.7 0 0 1 .49-.2 1 1 0 0 1 .33.06.59.59 0 0 1 .26.2l7.51 10.32-.23.3v-10.2a.69.69 0 0 1 .18-.49.63.63 0 0 1 .47-.19zm8.91 0a4.91 4.91 0 0 1 2.28.51 4.67 4.67 0 0 1 1.65 1.41 6.56 6.56 0 0 1 1 2.08 9.15 9.15 0 0 1 .33 2.47 8.7 8.7 0 0 1-.59 3.25 5.34 5.34 0 0 1-1.75 2.35 4.71 4.71 0 0 1-2.91.88h-4.45a.7.7 0 0 1-.51-.22.76.76 0 0 1-.2-.54v-11.45a.72.72 0 0 1 .2-.53.69.69 0 0 1 .51-.21zm-.18 11.5a3.45 3.45 0 0 0 2.23-.68 3.87 3.87 0 0 0 1.26-1.83 7.57 7.57 0 0 0 .41-2.52 8 8 0 0 0-.23-1.91 5.15 5.15 0 0 0-.69-1.62 3.48 3.48 0 0 0-1.21-1.11 3.62 3.62 0 0 0-1.77-.41h-3.62l.14-.15v10.42l-.1-.19zm17.02-9.58l-4.18 10.58a.65.65 0 0 1-.25.35.6.6 0 0 1-.37.13.64.64 0 0 1-.5-.18.63.63 0 0 1-.16-.44.69.69 0 0 1 0-.28l4.62-11.66a.7.7 0 0 1 .28-.38.66.66 0 0 1 .42-.1.74.74 0 0 1 .41.13.65.65 0 0 1 .26.35l4.63 11.55a.75.75 0 0 1 .06.29.67.67 0 0 1-.22.53.68.68 0 0 1-.48.19.63.63 0 0 1-.39-.13.71.71 0 0 1-.27-.37l-4.23-10.58zm-3.29 7.57l.6-1.44h5.29l.27 1.44z"/><path d="M132.98 189.33h6.29a.77.77 0 0 1 .52.2.7.7 0 0 1 .21.52.66.66 0 0 1-.21.51.76.76 0 0 1-.52.19h-5.73l.16-.31v4.68l-.18-.21h4.95a.73.73 0 0 1 .52.21.69.69 0 0 1 .21.52.64.64 0 0 1-.21.5.77.77 0 0 1-.52.2h-4.89l.12-.17v4.79l-.11-.13h5.68a.71.71 0 0 1 .52.23.69.69 0 0 1 .21.5.66.66 0 0 1-.21.51.73.73 0 0 1-.52.21h-6.33a.67.67 0 0 1-.51-.22.76.76 0 0 1-.16-.56v-11.43a.72.72 0 0 1 .21-.53.66.66 0 0 1 .5-.21zm10.29 12.95a.85.85 0 0 1-.58-.22.71.71 0 0 1-.24-.54v-11.45a.72.72 0 0 1 .2-.53.69.69 0 0 1 .51-.21h4.91a3.46 3.46 0 0 1 1.8.47 3.57 3.57 0 0 1 1.27 1.29 3.82 3.82 0 0 1 .47 1.9 3.56 3.56 0 0 1-2.21 3.37l-.39-.3a2.83 2.83 0 0 1 1.87 1.49 3.06 3.06 0 0 1 .32 1.36c0 .46.05.82.09 1.09a2.47 2.47 0 0 0 .16.64.82.82 0 0 0 .3.36.75.75 0 0 1 .33.45.58.58 0 0 1-.1.53.53.53 0 0 1-.3.23.88.88 0 0 1-.39.05.76.76 0 0 1-.34-.11 2.23 2.23 0 0 1-.55-.49 2.5 2.5 0 0 1-.44-.94 6.06 6.06 0 0 1-.18-1.66 2.32 2.32 0 0 0-.18-1 1.7 1.7 0 0 0-.48-.63 1.72 1.72 0 0 0-.68-.33 2.78 2.78 0 0 0-.76-.1h-4l.21-.33v4.83a.89.89 0 0 1-.17.54.61.61 0 0 1-.45.24zm.44-6.59h4.36a1.82 1.82 0 0 0 1-.37 2.52 2.52 0 0 0 .75-.93 3.15 3.15 0 0 0 .29-1.36 2.29 2.29 0 0 0-.6-1.63 1.94 1.94 0 0 0-1.5-.65h-4.2l.14-.35v5.62zm21.78.11a7.54 7.54 0 0 1-.45 2.64 6.77 6.77 0 0 1-1.24 2.12 5.91 5.91 0 0 1-6.72 1.4 5.69 5.69 0 0 1-1.9-1.4 6.58 6.58 0 0 1-1.24-2.12 8 8 0 0 1 0-5.29 6.43 6.43 0 0 1 1.24-2.11 5.69 5.69 0 0 1 1.9-1.4 6 6 0 0 1 4.81 0 5.63 5.63 0 0 1 1.91 1.4 6.61 6.61 0 0 1 1.24 2.11 7.56 7.56 0 0 1 .45 2.65zm-1.53 0a6 6 0 0 0-.58-2.68 4.57 4.57 0 0 0-1.58-1.83 4 4 0 0 0-2.31-.67 4.05 4.05 0 0 0-2.32.67 4.49 4.49 0 0 0-1.58 1.83 6 6 0 0 0-.57 2.68 6.1 6.1 0 0 0 .57 2.68 4.59 4.59 0 0 0 1.58 1.84 4.12 4.12 0 0 0 2.32.66 4.07 4.07 0 0 0 2.31-.66 4.67 4.67 0 0 0 1.58-1.84 6.1 6.1 0 0 0 .58-2.68zm13.11-6.47a.62.62 0 0 1 .48.19.69.69 0 0 1 .18.49v11.49a.73.73 0 0 1-.22.56.67.67 0 0 1-.51.22.74.74 0 0 1-.32-.07.58.58 0 0 1-.25-.17l-7.62-10.47.36-.23v10.25a.66.66 0 0 1-.19.49.65.65 0 0 1-.49.2.6.6 0 0 1-.46-.2.69.69 0 0 1-.18-.49v-11.52a.73.73 0 0 1 .21-.54.68.68 0 0 1 .49-.2 1.05 1.05 0 0 1 .33.06.56.56 0 0 1 .25.2l7.51 10.32-.23.3v-10.2a.66.66 0 0 1 .19-.49.61.61 0 0 1 .47-.19zm8.08 1.92l-4.18 10.58a.65.65 0 0 1-.25.35.62.62 0 0 1-.38.13.61.61 0 0 1-.49-.18.63.63 0 0 1-.16-.44.55.55 0 0 1 0-.28l4.61-11.66a.7.7 0 0 1 .28-.38.65.65 0 0 1 .41-.1.75.75 0 0 1 .42.13.65.65 0 0 1 .26.35l4.6 11.55a.74.74 0 0 1 .05.29.69.69 0 0 1-.21.53.68.68 0 0 1-.48.19.63.63 0 0 1-.39-.13.71.71 0 0 1-.27-.37l-4.23-10.58zm-3.29 7.57l.6-1.44h5.29l.26 1.44zm19.09-9.51a.63.63 0 0 1 .5.22.79.79 0 0 1 .19.54v7.34a5.13 5.13 0 0 1-.63 2.55 4.8 4.8 0 0 1-6.56 1.79 4.65 4.65 0 0 1-1.7-1.79 5.13 5.13 0 0 1-.63-2.55v-7.34a.76.76 0 0 1 .21-.54.69.69 0 0 1 .54-.22.7.7 0 0 1 .51.22.73.73 0 0 1 .22.54v7.34a3.6 3.6 0 0 0 .45 1.81 3.21 3.21 0 0 0 1.22 1.28 3.06 3.06 0 0 0 1.64.46 3.13 3.13 0 0 0 1.67-.46 3.46 3.46 0 0 0 1.24-1.25 3.42 3.42 0 0 0 .47-1.81v-7.34a.84.84 0 0 1 .18-.54.61.61 0 0 1 .48-.25zm3.54 1.42a.72.72 0 0 1-.51-.19.75.75 0 0 1 0-1 .72.72 0 0 1 .51-.19h8.27a.73.73 0 0 1 .52.19.66.66 0 0 1 .21.51.67.67 0 0 1-.21.52.77.77 0 0 1-.52.18zm4.13 11.55a.77.77 0 0 1-.54-.22.76.76 0 0 1-.21-.54v-11.43h1.51v11.41a.74.74 0 0 1-.76.76zm8.49-.78a.74.74 0 0 1-.23.54.73.73 0 0 1-.52.22.68.68 0 0 1-.53-.22.76.76 0 0 1-.2-.54v-11.41a.74.74 0 0 1 .21-.55.75.75 0 0 1 .54-.21.69.69 0 0 1 .51.21.71.71 0 0 1 .22.55zm12.1-11.32a.64.64 0 0 1 .34.5.77.77 0 0 1-.17.61.51.51 0 0 1-.4.26 1 1 0 0 1-.5-.11 5.66 5.66 0 0 0-1.27-.59 4.74 4.74 0 0 0-1.42-.21 4.8 4.8 0 0 0-1.92.38 4.49 4.49 0 0 0-1.51 1.06 4.9 4.9 0 0 0-1 1.63 5.84 5.84 0 0 0-.36 2.09 6 6 0 0 0 .38 2.19 4.91 4.91 0 0 0 1 1.63 4.32 4.32 0 0 0 1.51 1 5 5 0 0 0 1.88.35 5.11 5.11 0 0 0 1.41-.2 5.7 5.7 0 0 0 1.28-.59.81.81 0 0 1 .5-.1.68.68 0 0 1 .42.26.8.8 0 0 1 .16.62.58.58 0 0 1-.34.47 5.6 5.6 0 0 1-1 .51 6 6 0 0 1-1.18.36 5.74 5.74 0 0 1-1.24.13 6.35 6.35 0 0 1-2.42-.46 6 6 0 0 1-2-1.33 6.39 6.39 0 0 1-1.38-2.1 7.16 7.16 0 0 1-.51-2.77 7 7 0 0 1 .48-2.64 6.27 6.27 0 0 1 1.35-2.09 6 6 0 0 1 2-1.39 6.17 6.17 0 0 1 2.48-.5 6.49 6.49 0 0 1 1.81.26 6.05 6.05 0 0 1 1.62.77zm6.14 12.32a6.16 6.16 0 0 1-2.32-.4 6.46 6.46 0 0 1-1.92-1.3 1.54 1.54 0 0 1-.21-.29.77.77 0 0 1 .13-.87.68.68 0 0 1 .51-.23.59.59 0 0 1 .44.21 5.38 5.38 0 0 0 1.5 1.07 4.31 4.31 0 0 0 1.83.37 3.73 3.73 0 0 0 1.41-.26 2.38 2.38 0 0 0 1-.72 1.66 1.66 0 0 0 .37-1.07 1.93 1.93 0 0 0-.41-1.22 3.07 3.07 0 0 0-1.11-.81 8.63 8.63 0 0 0-1.63-.55 9.1 9.1 0 0 1-1.5-.5 4.21 4.21 0 0 1-1.18-.73 3 3 0 0 1-.78-1.05 3.61 3.61 0 0 1-.27-1.45 3.19 3.19 0 0 1 .53-1.85 3.52 3.52 0 0 1 1.48-1.23 5.13 5.13 0 0 1 2.17-.44 5.82 5.82 0 0 1 2.05.37 4 4 0 0 1 1.56 1 1 1 0 0 1 .36.68.71.71 0 0 1-.23.51.64.64 0 0 1-.5.23.51.51 0 0 1-.36-.14 3 3 0 0 0-.76-.63 4.27 4.27 0 0 0-1-.45 3.8 3.8 0 0 0-1.1-.16 3.74 3.74 0 0 0-1.44.25 2.16 2.16 0 0 0-1 .7 1.88 1.88 0 0 0 0 2.24 2.87 2.87 0 0 0 1.05.74 11.82 11.82 0 0 0 1.46.51 12.7 12.7 0 0 1 1.61.51 4.56 4.56 0 0 1 1.27.71 2.71 2.71 0 0 1 .83 1.08 3.91 3.91 0 0 1 .29 1.62 3.07 3.07 0 0 1-.55 1.81 3.77 3.77 0 0 1-1.5 1.25 5.13 5.13 0 0 1-2.08.49zm15.78-11.25l-4.18 10.58a.65.65 0 0 1-.25.35.62.62 0 0 1-.38.13.61.61 0 0 1-.49-.18.63.63 0 0 1-.16-.44.55.55 0 0 1 0-.28l4.6-11.66a.7.7 0 0 1 .28-.38.65.65 0 0 1 .41-.1.75.75 0 0 1 .42.13.65.65 0 0 1 .26.35l4.63 11.55a.74.74 0 0 1 .05.29.69.69 0 0 1-.21.53.68.68 0 0 1-.48.19.63.63 0 0 1-.39-.13.71.71 0 0 1-.27-.37l-4.23-10.58zm-3.29 7.57l.6-1.44h5.29l.26 1.44zm19.32-8.64a.65.65 0 0 1 .35.5.81.81 0 0 1-.17.61.52.52 0 0 1-.41.26 1 1 0 0 1-.5-.11 5.58 5.58 0 0 0-1.26-.59 5 5 0 0 0-3.35.17 4.59 4.59 0 0 0-1.51 1.06 4.9 4.9 0 0 0-1 1.63 6.54 6.54 0 0 0 0 4.28 4.91 4.91 0 0 0 1 1.63 4.36 4.36 0 0 0 1.52 1 5 5 0 0 0 1.87.35 5.06 5.06 0 0 0 1.41-.2 5.5 5.5 0 0 0 1.28-.59.82.82 0 0 1 .5-.1.68.68 0 0 1 .43.26.85.85 0 0 1 .16.62.6.6 0 0 1-.34.47 6.06 6.06 0 0 1-1 .51 6 6 0 0 1-1.18.36 5.74 5.74 0 0 1-1.24.13 6.35 6.35 0 0 1-2.42-.46 6 6 0 0 1-2-1.33 6.39 6.39 0 0 1-1.38-2.1 7.35 7.35 0 0 1-.5-2.77 7 7 0 0 1 .48-2.64 6.4 6.4 0 0 1 1.34-2.09 6.17 6.17 0 0 1 4.49-1.89 6.49 6.49 0 0 1 1.81.26 5.91 5.91 0 0 1 1.62.77zm2.24.55a.68.68 0 0 1-.5-.19.72.72 0 0 1 0-1 .68.68 0 0 1 .5-.19h8.28a.72.72 0 0 1 .51.19.64.64 0 0 1 .22.51.65.65 0 0 1-.22.52.76.76 0 0 1-.51.18zm4.13 11.55a.75.75 0 0 1-.75-.76v-11.43h1.49v11.41a.73.73 0 0 1-.22.54.75.75 0 0 1-.52.24zm8.49-.78a.75.75 0 0 1-.75.76.7.7 0 0 1-.53-.22.8.8 0 0 1-.2-.54v-11.41a.71.71 0 0 1 .22-.55.72.72 0 0 1 .53-.21.72.72 0 0 1 .73.76zm12.17-12.19a.76.76 0 0 1 .52.19.66.66 0 0 1 .21.51.85.85 0 0 1-.07.33l-4.65 11.46a.81.81 0 0 1-.29.36.72.72 0 0 1-.4.12.73.73 0 0 1-.37-.14.76.76 0 0 1-.27-.34l-4.6-11.44a.88.88 0 0 1-.05-.15 1.1 1.1 0 0 1 0-.18.68.68 0 0 1 .24-.55.81.81 0 0 1 .47-.19.72.72 0 0 1 .7.52l4.25 10.54h-.41l4.11-10.58a.69.69 0 0 1 .61-.46zm4.34 12.19a.73.73 0 0 1-.22.54.75.75 0 0 1-.53.22.7.7 0 0 1-.53-.22.8.8 0 0 1-.2-.54v-11.41a.75.75 0 0 1 .22-.59.76.76 0 0 1 1.05 0 .74.74 0 0 1 .21.55zm2.87-10.77a.69.69 0 0 1-.51-.19.72.72 0 0 1 0-1 .69.69 0 0 1 .51-.19h8.27a.76.76 0 0 1 .52.19.66.66 0 0 1 .21.51.67.67 0 0 1-.21.52.8.8 0 0 1-.52.18zm4.12 11.55a.73.73 0 0 1-.53-.22.76.76 0 0 1-.21-.54v-11.43h1.49v11.41a.76.76 0 0 1-.21.54.79.79 0 0 1-.54.24zm14.75-13.03a.68.68 0 0 1 .51.23.77.77 0 0 1 .21.53.91.91 0 0 1 0 .23.67.67 0 0 1-.1.23l-4.13 6 .23-.91v6a.76.76 0 0 1-.2.54.68.68 0 0 1-.49.22.73.73 0 0 1-.53-.22.8.8 0 0 1-.2-.54v-5.83l.12.48-4-5.62a1.15 1.15 0 0 1-.15-.29.86.86 0 0 1-.05-.27.67.67 0 0 1 .25-.52.76.76 0 0 1 .5-.22.69.69 0 0 1 .59.35l3.68 5.26-.34-.06 3.55-5.18a.69.69 0 0 1 .55-.41zm16.48.93a.65.65 0 0 1 .35.5.81.81 0 0 1-.17.61.52.52 0 0 1-.41.26 1 1 0 0 1-.5-.11 5.58 5.58 0 0 0-1.26-.59 4.78 4.78 0 0 0-1.42-.21 4.89 4.89 0 0 0-1.93.38 4.59 4.59 0 0 0-1.51 1.06 4.9 4.9 0 0 0-1 1.63 6.54 6.54 0 0 0 0 4.28 4.77 4.77 0 0 0 1 1.63 4.23 4.23 0 0 0 1.51 1 5.13 5.13 0 0 0 3.28.15 5.5 5.5 0 0 0 1.28-.59.82.82 0 0 1 .5-.1.68.68 0 0 1 .43.26.85.85 0 0 1 .16.62.6.6 0 0 1-.34.47 6 6 0 0 1-1 .51 6.06 6.06 0 0 1-1.19.36 5.71 5.71 0 0 1-1.23.13 6.32 6.32 0 0 1-2.42-.46 6 6 0 0 1-3.39-3.43 7.16 7.16 0 0 1-.51-2.77 7 7 0 0 1 .48-2.64 6.4 6.4 0 0 1 1.34-2.09 6.17 6.17 0 0 1 4.5-1.89 6.42 6.42 0 0 1 1.8.26 5.78 5.78 0 0 1 1.65.77zm3.22-.85h6.3a.73.73 0 0 1 .51.2.67.67 0 0 1 .22.52.64.64 0 0 1-.22.51.72.72 0 0 1-.51.19h-5.73l.16-.31v4.68l-.18-.21h5a.69.69 0 0 1 .51.21.66.66 0 0 1 .22.52.62.62 0 0 1-.22.5.73.73 0 0 1-.51.2h-4.9l.13-.17v4.79l-.11-.13h5.63a.68.68 0 0 1 .51.23.66.66 0 0 1 .22.5.64.64 0 0 1-.22.51.69.69 0 0 1-.51.21h-6.3a.67.67 0 0 1-.5-.22.76.76 0 0 1-.2-.56v-11.43a.72.72 0 0 1 .21-.53.66.66 0 0 1 .49-.21zm18.65 0a.62.62 0 0 1 .48.19.69.69 0 0 1 .18.49v11.49a.76.76 0 0 1-.21.56.7.7 0 0 1-.52.22.74.74 0 0 1-.32-.07.58.58 0 0 1-.25-.17l-7.62-10.47.36-.23v10.25a.66.66 0 0 1-.19.49.63.63 0 0 1-.49.2.6.6 0 0 1-.46-.2.69.69 0 0 1-.18-.49v-11.52a.73.73 0 0 1 .21-.54.7.7 0 0 1 .49-.2 1.05 1.05 0 0 1 .33.06.59.59 0 0 1 .26.2l7.5 10.32-.23.3v-10.2a.7.7 0 0 1 .19-.49.61.61 0 0 1 .47-.19zm3.51 1.4a.7.7 0 0 1-.51-.19.72.72 0 0 1 0-1 .7.7 0 0 1 .51-.19h8.27a.76.76 0 0 1 .52.19.66.66 0 0 1 .21.51.67.67 0 0 1-.21.52.8.8 0 0 1-.52.18zm4.14 11.55a.73.73 0 0 1-.53-.22.76.76 0 0 1-.21-.54v-11.43h1.51v11.41a.76.76 0 0 1-.21.54.79.79 0 0 1-.56.24zm7.81 0a.85.85 0 0 1-.57-.22.71.71 0 0 1-.24-.56v-11.43a.72.72 0 0 1 .2-.53.69.69 0 0 1 .51-.21h4.91a3.46 3.46 0 0 1 1.8.47 3.57 3.57 0 0 1 1.27 1.29 3.76 3.76 0 0 1-.6 4.52 3.64 3.64 0 0 1-1.14.75l-.39-.3a2.91 2.91 0 0 1 1.09.53 2.84 2.84 0 0 1 .78 1 3.06 3.06 0 0 1 .32 1.36c0 .46 0 .82.09 1.09a2.47 2.47 0 0 0 .16.64.82.82 0 0 0 .3.36.75.75 0 0 1 .33.45.61.61 0 0 1-.1.53.53.53 0 0 1-.3.23.88.88 0 0 1-.39.05.76.76 0 0 1-.34-.11 2.23 2.23 0 0 1-.55-.49 2.66 2.66 0 0 1-.45-.94 6.55 6.55 0 0 1-.17-1.66 2.32 2.32 0 0 0-.18-1 1.7 1.7 0 0 0-.48-.63 1.72 1.72 0 0 0-.68-.33 2.78 2.78 0 0 0-.76-.1h-4l.21-.33v4.79a.84.84 0 0 1-.18.54.58.58 0 0 1-.45.24zm.45-6.59h4.36a1.82 1.82 0 0 0 1-.37 2.52 2.52 0 0 0 .75-.93 3.15 3.15 0 0 0 .29-1.36 2.29 2.29 0 0 0-.6-1.63 2 2 0 0 0-1.5-.65h-4.2l.14-.35v5.62zm11.48-6.36h6.33a.75.75 0 0 1 .52.2.7.7 0 0 1 .21.52.66.66 0 0 1-.21.51.74.74 0 0 1-.52.19h-5.73l.16-.31v4.68l-.18-.21h4.95a.73.73 0 0 1 .52.21.69.69 0 0 1 .21.52.64.64 0 0 1-.21.5.77.77 0 0 1-.52.2h-4.89l.12-.17v4.79l-.1-.13h5.67a.7.7 0 0 1 .52.23.69.69 0 0 1 .21.5.66.66 0 0 1-.21.51.72.72 0 0 1-.52.21h-6.33a.7.7 0 0 1-.51-.22.76.76 0 0 1-.23-.56v-11.43a.72.72 0 0 1 .21-.53.69.69 0 0 1 .53-.21zM343.77 143l7-11h-31.72a25.31 25.31 0 0 0-12.9 3.38c-4.88 2.87-9.88 8.12-10.38 17.62-.53 10 5.07 15.6 10.48 18.62a27.45 27.45 0 0 0 13.43 3.38h24.09l7-11h-31.5a11.58 11.58 0 0 1-9.86-5.23 10.68 10.68 0 0 1-1.64-5.77 9 9 0 0 1 4.38-7.6 14.72 14.72 0 0 1 8.24-2.4z"/><circle cx="93.77" cy="168" r="6.5"/><use xlink:href="#B"/><circle cx="187.77" cy="168" r="6.5"/><use x="94" xlink:href="#B"/><circle cx="283.77" cy="168" r="6.5"/><path d="M71.27 142.5l8-11H38.44a18.44 18.44 0 0 0-7.72 1.61c-3.85 1.79-8.09 5.46-6.95 12.89 2 13 14 11 14 11h27a4.26 4.26 0 0 1 4.05 2.73 2.94 2.94 0 0 1-.45 2.94 3.65 3.65 0 0 1-2.9 1.33h-34.7l-8 11h46s12 0 13-13-12-13-12-13h-30a4.52 4.52 0 0 1-3.21-1.18 2.43 2.43 0 0 1-.94-2.53c.15-1.29 2.15-2.29 5.15-2.3z"/></g><defs><path id="B" d="M126.49 174.5h51.78l-30.71-43.35a6.84 6.84 0 0 0-5.61-2.91h-.84a6.86 6.86 0 0 0-5.58 2.86l-30.26 43.4h16l19.29-29.15a1.5 1.5 0 0 1 2.47 0l11.46 17.2h-20.07z"/></defs></svg>